<?xml version="1.0" encoding="UTF-8" standalone="no"?>
<svg
   id="Layer_1"
   data-name="Layer 1"
   viewBox="0 0 6000 2000"
   version="1.1"
   xmlns="http://www.w3.org/2000/svg"
   xmlns:svg="http://www.w3.org/2000/svg">
  <defs
     id="defs829">
    <style
       id="style824">
      .cls-1 {
        fill: none;
      }

      .cls-2 {
        clip-path: url(#clippath);
      }

      .cls-3 {
        letter-spacing: -.03em;
      }

      .cls-4, .cls-5, .cls-6 {
        fill: #fff;
      }

      .cls-7, .cls-8 {
        fill: #454545;
      }

      .cls-9 {
        fill: #282829;
      }

      .cls-5 {
        font-family: CarmenSans-Thin, 'Carmen Sans';
        font-size: 83px;
        font-weight: 200;
      }

      .cls-10 {
        letter-spacing: 0em;
      }

      .cls-6 {
        fill-rule: evenodd;
      }

      .cls-8 {
        opacity: .37;
      }
    </style>
    <clipPath
       id="clippath">
      <rect
         class="cls-1"
         x="237.06"
         width="5525.89"
         height="2000"
         rx="265.03"
         ry="265.03"
         id="rect826" />
    </clipPath>
  </defs>
  <g
     class="cls-2"
     clip-path="url(#clippath)"
     id="g1097">
    <rect
       class="cls-9"
       x="237.06"
       width="5525.8901"
       height="2000"
       rx="265.03"
       ry="265.03"
       id="rect831"
       y="0" />
    <path
       class="cls-8"
       d="M 1028.09,651.62 609.18,893.48 c -27.24,15.73 -60.8,15.73 -88.05,0 L 102.22,651.62 C 74.98,635.89 58.2,606.83 58.2,575.37 V 91.65 c 0,-31.46 16.78,-60.52 44.02,-76.25 l 418.91,-241.86 c 27.24,-15.73 60.8,-15.73 88.05,0 L 1028.09,15.4 c 27.24,15.73 44.02,44.79 44.02,76.25 v 483.71 c 0,31.46 -16.78,60.52 -44.02,76.25 z"
       id="path833" />
    <g
       id="g870">
      <g
         id="g11333">
        <rect
           id="rect11553"
           class="cls-7"
           x="1352.75"
           y="273.44"
           width="705.28003"
           height="705.28003"
           rx="69.889999"
           ry="69.889999" />
        <path
           id="icon"
           class="cls-4"
           d="m 1701.24,333.51 -62.78,62.78 21.33,82.91 -65.15,-34.34 3.55,69.88 -63.96,-60.41 -84.1,21.32 22.5,91.21 81.73,18.94 -60.41,40.27 58.03,34.35 -81.72,23.69 -18.95,82.91 91.21,27.24 55.67,-59.22 3.55,72.25 56.85,-30.79 -17.76,86.46 63.96,55.67 60.41,-67.52 -16.58,-79.36 65.15,30.8 -1.19,-60.41 63.96,58.04 81.73,-21.33 -21.32,-90.02 -86.47,-24.87 59.22,-37.91 -58.04,-34.34 87.65,-23.69 21.33,-82.91 -90.02,-29.62 -60.41,60.42 -3.55,-73.44 -59.22,30.8 18.95,-81.73 -65.15,-58.04 z m -0.05,99.29 32.82,53.49 -33.19,116.73 -30.04,-116.79 30.4,-53.43 z m -166.91,91.18 62.82,2.09 87.94,90.88 -117.68,-33.5 -33.08,-59.46 z m 270.53,5.44 65.75,3.77 -32.25,51.93 -117.26,28.47 z m -120.61,104.69 -83.76,86.69 h -67.84 l 32.66,-56.11 z m 38.11,2.1 116.42,32.67 35.18,56.53 -64.07,1.25 z m -20.52,10.05 33.09,116.84 -33.92,54.86 -31.41,-56.53 32.25,-115.17 z" />
      </g>
      <g
         id="g868">
        <path
           class="cls-4"
           d="m 2337.34,499.51 h -127.3 v 88.5 h 115.25 v 11.47 h -115.25 v 100.84 h -12.35 V 488.05 h 139.65 v 11.47 z"
           id="path838" />
        <path
           class="cls-4"
           d="m 2460.23,558.31 c -3.82,-0.88 -8.82,-1.47 -14.7,-1.47 -31.75,0 -54.39,29.99 -54.39,61.74 v 81.73 h -12.05 V 548.6 h 12.05 v 35.28 c 8.23,-22.64 28.52,-38.22 55.27,-38.22 5.59,0 10.29,0.59 13.82,1.76 v 10.88 z"
           id="path840" />
        <path
           class="cls-4"
           d="m 2563.71,544.49 c 44.69,-0.88 79.68,36.16 78.79,79.97 0.88,43.81 -34.11,80.85 -78.79,79.97 -44.69,0.88 -79.68,-36.16 -78.79,-79.97 -0.88,-43.81 34.1,-80.85 78.79,-79.97 z m 0,148.77 c 38.81,0 66.74,-30.87 66.74,-68.8 0,-37.93 -27.93,-68.8 -66.74,-68.8 -38.81,0 -66.74,30.87 -66.74,68.8 0,37.93 27.93,68.8 66.74,68.8 z"
           id="path842" />
        <path
           class="cls-4"
           d="m 2728.35,615.35 30.28,6.76 c 33.22,7.35 47.63,18.52 47.63,39.4 0,25.28 -28.81,42.92 -65.56,42.92 -14.99,0 -28.81,-2.94 -41.75,-9.11 -12.64,-6.17 -22.05,-13.82 -28.22,-22.93 l 10,-6.76 c 11.47,16.76 34.4,27.64 60.27,27.64 14.7,0 27.34,-2.65 37.63,-8.23 10.29,-5.58 15.58,-13.23 15.58,-22.64 0,-15.58 -11.17,-23.23 -39.4,-29.4 l -30.28,-6.76 c -32.63,-7.06 -46.75,-18.52 -46.75,-38.81 0,-25.58 26.46,-42.92 60.86,-42.92 13.52,0 26.17,2.94 37.93,8.53 11.76,5.59 20.29,12.64 25.87,20.87 l -9.7,6.76 c -10.29,-15.29 -31.17,-24.99 -54.39,-24.99 -13.23,0 -24.7,2.94 -34.4,8.53 -9.41,5.59 -14.11,12.94 -14.11,22.34 0,15.29 11.17,22.64 38.51,28.81 z"
           id="path844" />
        <path
           class="cls-4"
           d="m 2951.49,693.85 c -7.94,5.88 -20.88,10.58 -34.69,10.58 -32.05,0 -47.92,-20.58 -47.92,-62.62 v -82.03 h -38.51 v -11.17 h 38.51 V 504.8 h 12.05 v 43.81 h 67.03 v 11.17 h -67.03 v 81.15 c 0,34.99 11.47,52.33 34.69,52.33 11.47,0 21.76,-2.94 30.28,-9.11 z"
           id="path846" />
        <path
           class="cls-4"
           d="m 3122.3,548.61 -72.91,157.88 c -22.34,48.22 -38.81,61.74 -62.04,61.74 -9.11,0 -18.52,-2.35 -24.7,-5.88 l 4.41,-10.58 c 6.17,3.53 12.94,5.29 20.88,5.29 9.11,0 17.05,-3.82 24.4,-11.17 7.35,-7.35 15.58,-20.29 24.11,-39.1 l 2.94,-6.47 -72.03,-151.71 h 13.23 l 65.27,137.59 63.51,-137.59 h 12.94 z"
           id="path848" />
        <path
           class="cls-4"
           d="m 3210.49,488.04 h 174.05 v 11.47 h -80.85 v 200.81 h -12.35 V 499.51 h -80.85 z"
           id="path850" />
        <path
           class="cls-4"
           d="m 3463.93,544.49 c 44.69,-0.88 79.68,36.16 78.79,79.97 0.88,43.81 -34.11,80.85 -78.79,79.97 -44.69,0.88 -79.68,-36.16 -78.79,-79.97 -0.88,-43.81 34.1,-80.85 78.79,-79.97 z m 0,148.77 c 38.81,0 66.74,-30.87 66.74,-68.8 0,-37.93 -27.93,-68.8 -66.74,-68.8 -38.81,0 -66.74,30.87 -66.74,68.8 0,37.93 27.93,68.8 66.74,68.8 z"
           id="path852" />
        <path
           class="cls-4"
           d="m 3650.91,544.49 c 44.69,-0.88 79.68,36.16 78.79,79.97 0.88,43.81 -34.11,80.85 -78.79,79.97 -44.69,0.88 -79.68,-36.16 -78.79,-79.97 -0.88,-43.81 34.1,-80.85 78.79,-79.97 z m 0,148.77 c 38.81,0 66.74,-30.87 66.74,-68.8 0,-37.93 -27.93,-68.8 -66.74,-68.8 -38.81,0 -66.74,30.87 -66.74,68.8 0,37.93 27.93,68.8 66.74,68.8 z"
           id="path854" />
        <path
           class="cls-4"
           d="m 3772.62,484.22 h 12.05 v 216.09 h -12.05 z"
           id="path856" />
        <path
           class="cls-4"
           d="m 3971.06,584.18 30.28,7.35 c 38.81,9.41 59.98,26.75 59.98,54.98 0,34.4 -34.69,57.92 -79.09,57.92 -35.87,0 -69.68,-18.82 -81.73,-40.28 l 10.29,-6.76 c 11.76,20.29 38.81,35.58 72.03,35.58 36.16,0 66.15,-18.82 66.15,-45.57 0,-22.64 -17.05,-36.16 -51.45,-44.69 l -30.28,-7.35 c -39.4,-9.41 -59.1,-27.34 -59.1,-54.1 0,-33.81 32.63,-57.33 74.38,-57.33 32.05,0 62.92,17.93 73.8,37.63 l -10,6.47 c -10.58,-18.82 -36.16,-32.63 -64.39,-32.63 -33.22,0 -61.45,18.82 -61.45,44.98 0,22.34 16.76,35.58 50.57,43.81 z"
           id="path858" />
        <path
           class="cls-4"
           d="m 4245.36,548.61 v 151.71 h -12.05 v -34.99 c -8.53,22.64 -30.87,39.1 -60.27,39.1 -44.39,0 -67.03,-27.05 -67.03,-71.74 V 548.6 h 12.05 v 83.5 c 0,37.93 17.05,61.15 55.86,61.15 34.69,0 59.39,-30.28 59.39,-61.74 V 548.6 h 12.05 z"
           id="path860" />
        <path
           class="cls-4"
           d="m 4307.68,488.92 c 6.17,0 11.47,5.29 11.47,11.47 0,6.18 -5.29,11.47 -11.47,11.47 -6.18,0 -11.47,-5.29 -11.47,-11.47 0,-6.18 5.29,-11.47 11.47,-11.47 z m -5.88,59.68 h 12.05 v 151.71 h -12.05 z"
           id="path862" />
        <path
           class="cls-4"
           d="m 4471.44,693.85 c -7.94,5.88 -20.87,10.58 -34.69,10.58 -32.05,0 -47.92,-20.58 -47.92,-62.62 v -82.03 h -38.51 v -11.17 h 38.51 V 504.8 h 12.05 v 43.81 h 67.03 v 11.17 h -67.03 v 81.15 c 0,34.99 11.47,52.33 34.69,52.33 11.47,0 21.76,-2.94 30.28,-9.11 z"
           id="path864" />
        <path
           class="cls-4"
           d="m 4506.71,629.75 c 2.35,35.87 29.11,63.51 66.45,63.51 24.99,0 46.45,-10.58 58.21,-27.34 l 9.41,7.06 c -14.11,19.11 -39.1,31.46 -67.62,31.46 -44.69,0.88 -79.68,-36.16 -78.79,-79.97 -0.88,-43.81 33.22,-80.85 76.44,-79.97 44.1,0 76.44,30.87 76.44,74.38 0,2.65 -0.29,6.17 -0.59,10.88 h -139.95 z m 128.48,-10.88 c -0.59,-37.63 -26.46,-63.21 -64.39,-63.21 -37.93,0 -61.74,27.93 -64.09,63.21 z"
           id="path866" />
      </g>
    </g>
    <g
       id="g1004">
      <path
         class="cls-4"
         d="m 873.67,1139.63 v -15.39 h 61.16 v 15.39 h -22.05 v 57.33 h -17.05 v -57.33 h -22.05 z"
         id="path872" />
      <path
         class="cls-4"
         d="m 996.96,1196.97 h -16.47 v -29.21 c 0,-7.45 -3.53,-11.27 -9.7,-11.27 -6.57,0 -11.27,4.8 -11.27,13.13 v 27.34 h -16.46 v -74 h 16.46 v 27.25 c 3.04,-5 8.72,-7.94 15.39,-7.94 13.72,0 22.05,9.11 22.05,24.31 v 30.38 z"
         id="path874" />
      <path
         class="cls-4"
         d="m 1021.94,1175.6 c 1.86,5.98 7.15,8.92 13.82,8.92 5,0 9.6,-2.25 11.86,-5.78 l 12.64,7.74 c -4.7,7.35 -14.21,11.86 -24.5,11.86 -17.54,0 -29.79,-11.86 -29.79,-28.03 -0.29,-15.98 12.06,-28.23 27.83,-28.03 16.07,0 27.83,10.98 27.83,26.95 0,2.45 -0.1,4.61 -0.29,6.37 z m 23.82,-10.68 c -0.69,-5.49 -5.29,-9.21 -11.86,-9.21 -5.59,0 -10.29,3.23 -11.96,9.21 z"
         id="path876" />
      <path
         class="cls-4"
         d="m 1181.59,1196.97 h -16.47 v -29.21 c 0,-7.15 -3.14,-11.27 -8.62,-11.27 -5.78,0 -10.19,5 -10.19,13.13 v 27.34 h -16.47 v -29.21 c 0,-7.15 -3.14,-11.27 -8.62,-11.27 -5.78,0 -10.19,5 -10.19,13.13 v 27.34 h -16.46 v -53.32 h 16.46 v 6.57 c 3.04,-4.8 8.33,-7.94 14.31,-7.94 7.74,0 13.82,3.43 17.45,9.41 3.53,-5.98 9.51,-9.41 17.64,-9.41 13.23,0 21.17,9.31 21.17,24.31 v 30.38 z"
         id="path878" />
      <path
         class="cls-4"
         d="m 1219.22,1142.28 c 16.27,-0.29 28.91,12.25 28.62,28.03 0.29,15.78 -12.35,28.32 -28.62,28.03 -16.27,0.29 -28.91,-12.25 -28.62,-28.03 -0.29,-15.78 12.35,-28.32 28.62,-28.03 z m 0,14.41 c -7.74,0 -12.94,5.68 -12.94,13.62 0,7.94 5.19,13.62 12.94,13.62 7.75,0 12.94,-5.68 12.94,-13.62 0,-7.94 -5.19,-13.62 -12.94,-13.62 z"
         id="path880" />
      <path
         class="cls-4"
         d="m 1265.47,1178.54 c 2.35,4.02 7.45,7.25 14.02,7.25 5.88,0 9.7,-1.47 9.7,-3.82 0,-2.65 -1.76,-3.72 -9.51,-5.39 l -6.96,-1.57 c -11.07,-2.45 -16.66,-7.35 -16.66,-15.49 0,-10.49 9.9,-17.25 23.91,-17.25 10.98,0 20.29,5.29 24.21,11.96 l -12.05,6.76 c -2.06,-3.53 -7.35,-6.17 -12.54,-6.17 -5.19,0 -8.13,1.47 -8.13,3.82 0,2.35 1.76,3.53 9.51,5.19 l 6.96,1.57 c 11.07,2.45 16.66,7.45 16.66,15.68 0,10.49 -10.78,17.25 -25.48,17.25 -6.08,0 -11.37,-1.27 -15.98,-3.82 -4.51,-2.55 -7.74,-5.59 -9.8,-9.11 l 12.15,-6.86 z"
         id="path882" />
      <path
         class="cls-4"
         d="m 1354.07,1195.2 c -3.14,1.96 -8.43,3.14 -13.53,3.14 -13.43,0 -21.07,-7.55 -21.07,-22.15 v -18.23 h -10.68 v -14.31 h 10.68 v -13.82 h 16.47 v 13.82 h 15.98 v 14.31 h -15.98 v 18.13 c 0,5.19 2.45,7.74 7.35,7.74 2.74,0 5.19,-0.59 7.45,-1.67 z"
         id="path884" />
      <path
         class="cls-4"
         d="m 1441.58,1143.65 v 53.32 h -16.47 v -6.57 c -3.53,5.1 -9.21,7.94 -15.78,7.94 -15,0 -25.87,-12.25 -25.87,-28.03 0,-15.78 10.88,-28.03 25.87,-28.03 6.57,0 12.25,2.84 15.78,7.94 v -6.57 z m -29.5,12.84 c -7.74,0 -12.94,5.88 -12.94,13.82 0,7.94 5.19,13.82 12.94,13.82 7.75,0 12.94,-5.88 12.94,-13.82 0,-7.94 -5.19,-13.82 -12.94,-13.82 z"
         id="path886" />
      <path
         class="cls-4"
         d="m 1509.1,1122.97 v 74 h -16.47 v -6.57 c -3.53,5.1 -9.21,7.94 -15.78,7.94 -15,0 -25.87,-12.25 -25.87,-28.03 0,-15.78 10.88,-28.03 25.87,-28.03 6.57,0 12.25,2.84 15.78,7.94 v -27.25 z m -29.5,33.52 c -7.74,0 -12.94,5.88 -12.94,13.82 0,7.94 5.19,13.82 12.94,13.82 7.75,0 12.94,-5.88 12.94,-13.82 0,-7.94 -5.19,-13.82 -12.94,-13.82 z"
         id="path888" />
      <path
         class="cls-4"
         d="m 1533.4,1143.65 13.23,33.42 13.23,-33.42 h 17.25 l -22.35,53.32 h -16.66 l -22.35,-53.32 h 17.64 z"
         id="path890" />
      <path
         class="cls-4"
         d="m 1636.6,1143.65 v 53.32 h -16.47 v -6.57 c -3.53,5.1 -9.21,7.94 -15.78,7.94 -15,0 -25.87,-12.25 -25.87,-28.03 0,-15.78 10.88,-28.03 25.87,-28.03 6.57,0 12.25,2.84 15.78,7.94 v -6.57 z m -29.5,12.84 c -7.74,0 -12.94,5.88 -12.94,13.82 0,7.94 5.19,13.82 12.94,13.82 7.75,0 12.94,-5.88 12.94,-13.82 0,-7.94 -5.19,-13.82 -12.94,-13.82 z"
         id="path892" />
      <path
         class="cls-4"
         d="m 1701.87,1196.97 h -16.47 v -29.21 c 0,-7.45 -3.53,-11.27 -9.7,-11.27 -6.57,0 -11.27,4.8 -11.27,13.13 v 27.34 h -16.46 v -53.32 h 16.46 v 6.57 c 3.04,-5 8.72,-7.94 15.39,-7.94 13.72,0 22.05,9.11 22.05,24.31 v 30.38 z"
         id="path894" />
      <path
         class="cls-4"
         d="m 1739.49,1142.28 c 10.49,0 19.31,4.8 24.31,12.64 l -13.52,7.45 c -2.35,-3.53 -6.08,-5.68 -10.78,-5.68 -7.74,0 -12.94,5.68 -12.94,13.62 0,7.94 5.19,13.62 12.94,13.62 4.7,0 8.43,-2.16 10.78,-5.68 l 13.52,7.45 c -5,7.84 -13.82,12.64 -24.31,12.64 -16.27,0.29 -28.91,-12.25 -28.62,-28.03 -0.29,-15.78 12.35,-28.32 28.62,-28.03 z"
         id="path896" />
      <path
         class="cls-4"
         d="m 1784.67,1175.6 c 1.86,5.98 7.15,8.92 13.82,8.92 5,0 9.6,-2.25 11.86,-5.78 l 12.64,7.74 c -4.7,7.35 -14.21,11.86 -24.5,11.86 -17.54,0 -29.79,-11.86 -29.79,-28.03 -0.29,-15.98 12.06,-28.23 27.83,-28.03 16.07,0 27.83,10.98 27.83,26.95 0,2.45 -0.1,4.61 -0.29,6.37 z m 23.82,-10.68 c -0.69,-5.49 -5.29,-9.21 -11.86,-9.21 -5.59,0 -10.29,3.23 -11.96,9.21 z"
         id="path898" />
      <path
         class="cls-4"
         d="m 1889.93,1122.97 v 74 h -16.47 v -6.57 c -3.53,5.1 -9.21,7.94 -15.78,7.94 -15,0 -25.87,-12.25 -25.87,-28.03 0,-15.78 10.88,-28.03 25.87,-28.03 6.57,0 12.25,2.84 15.78,7.94 v -27.25 z m -29.5,33.52 c -7.74,0 -12.94,5.88 -12.94,13.82 0,7.94 5.19,13.82 12.94,13.82 7.75,0 12.94,-5.88 12.94,-13.82 0,-7.94 -5.19,-13.82 -12.94,-13.82 z"
         id="path900" />
      <path
         class="cls-4"
         d="m 2011.84,1196.97 h -16.47 v -29.21 c 0,-7.15 -3.14,-11.27 -8.62,-11.27 -5.78,0 -10.19,5 -10.19,13.13 v 27.34 h -16.47 v -29.21 c 0,-7.15 -3.14,-11.27 -8.62,-11.27 -5.78,0 -10.19,5 -10.19,13.13 v 27.34 h -16.46 v -53.32 h 16.46 v 6.57 c 3.04,-4.8 8.33,-7.94 14.31,-7.94 7.74,0 13.82,3.43 17.45,9.41 3.53,-5.98 9.51,-9.41 17.64,-9.41 13.23,0 21.17,9.31 21.17,24.31 v 30.38 z"
         id="path902" />
      <path
         class="cls-4"
         d="m 2049.47,1142.28 c 16.27,-0.29 28.91,12.25 28.62,28.03 0.29,15.78 -12.35,28.32 -28.62,28.03 -16.27,0.29 -28.91,-12.25 -28.62,-28.03 -0.29,-15.78 12.35,-28.32 28.62,-28.03 z m 0,14.41 c -7.74,0 -12.94,5.68 -12.94,13.62 0,7.94 5.19,13.62 12.94,13.62 7.75,0 12.94,-5.68 12.94,-13.62 0,-7.94 -5.19,-13.62 -12.94,-13.62 z"
         id="path904" />
      <path
         class="cls-4"
         d="m 2143.65,1122.97 v 74 h -16.47 v -6.57 c -3.53,5.1 -9.21,7.94 -15.78,7.94 -15,0 -25.87,-12.25 -25.87,-28.03 0,-15.78 10.88,-28.03 25.87,-28.03 6.57,0 12.25,2.84 15.78,7.94 v -27.25 z m -29.5,33.52 c -7.74,0 -12.94,5.88 -12.94,13.82 0,7.94 5.19,13.82 12.94,13.82 7.75,0 12.94,-5.88 12.94,-13.82 0,-7.94 -5.19,-13.82 -12.94,-13.82 z"
         id="path906" />
      <path
         class="cls-4"
         d="m 2211.17,1122.97 v 74 h -16.47 v -6.57 c -3.53,5.1 -9.21,7.94 -15.78,7.94 -15,0 -25.87,-12.25 -25.87,-28.03 0,-15.78 10.88,-28.03 25.87,-28.03 6.57,0 12.25,2.84 15.78,7.94 v -27.25 z m -29.5,33.52 c -7.74,0 -12.94,5.88 -12.94,13.82 0,7.94 5.19,13.82 12.94,13.82 7.75,0 12.94,-5.88 12.94,-13.82 0,-7.94 -5.19,-13.82 -12.94,-13.82 z"
         id="path908" />
      <path
         class="cls-4"
         d="m 2230.76,1119.83 c 5.59,0 9.8,4.02 9.8,9.21 0,5.19 -4.21,9.21 -9.8,9.21 -5.59,0 -9.8,-4.02 -9.8,-9.21 0,-5.19 4.21,-9.21 9.8,-9.21 z m 8.23,23.82 v 53.32 h -16.46 v -53.32 z"
         id="path910" />
      <path
         class="cls-4"
         d="m 2304.27,1196.97 h -16.47 v -29.21 c 0,-7.45 -3.53,-11.27 -9.7,-11.27 -6.57,0 -11.27,4.8 -11.27,13.13 v 27.34 h -16.46 v -53.32 h 16.46 v 6.57 c 3.04,-5 8.72,-7.94 15.39,-7.94 13.72,0 22.05,9.11 22.05,24.31 v 30.38 z"
         id="path912" />
      <path
         class="cls-4"
         d="m 2371.4,1143.65 v 48.42 c 0,17.54 -13.92,26.95 -30.38,26.95 -11.66,0 -20.78,-5.19 -25.78,-12.54 l 12.84,-7.84 c 2.65,3.82 7.15,6.47 12.94,6.47 8.72,0 13.92,-4.41 13.92,-13.04 v -3.92 c -3.43,4.7 -9.21,7.25 -15.78,7.25 -15,0 -25.87,-11.47 -25.87,-26.56 0,-15.09 10.88,-26.56 25.87,-26.56 6.57,0 12.35,2.55 15.78,7.25 v -5.88 h 16.47 z m -29.5,12.74 c -7.74,0 -12.94,5.1 -12.94,12.45 0,7.35 5.19,12.45 12.94,12.45 7.75,0 12.94,-5.1 12.94,-12.45 0,-7.35 -5.19,-12.45 -12.94,-12.45 z"
         id="path914" />
      <path
         class="cls-4"
         d="m 2438.52,1198.34 c -6.57,0 -12.25,-2.84 -15.78,-7.94 v 27.25 h -16.46 v -74 h 16.46 v 6.57 c 3.53,-5.1 9.21,-7.94 15.78,-7.94 15,0 25.87,12.25 25.87,28.03 0,15.78 -10.88,28.03 -25.87,28.03 z m -2.74,-41.85 c -7.74,0 -12.94,5.88 -12.94,13.82 0,7.94 5.19,13.82 12.94,13.82 7.75,0 12.94,-5.88 12.94,-13.82 0,-7.94 -5.19,-13.82 -12.94,-13.82 z"
         id="path916" />
      <path
         class="cls-4"
         d="m 2490.26,1122.97 v 74 h -16.46 v -74 z"
         id="path918" />
      <path
         class="cls-4"
         d="m 2557.79,1143.65 v 53.32 h -16.47 v -6.57 c -3.53,5.1 -9.21,7.94 -15.78,7.94 -15,0 -25.87,-12.25 -25.87,-28.03 0,-15.78 10.88,-28.03 25.87,-28.03 6.57,0 12.25,2.84 15.78,7.94 v -6.57 z m -29.5,12.84 c -7.74,0 -12.94,5.88 -12.94,13.82 0,7.94 5.19,13.82 12.94,13.82 7.75,0 12.94,-5.88 12.94,-13.82 0,-7.94 -5.19,-13.82 -12.94,-13.82 z"
         id="path920" />
      <path
         class="cls-4"
         d="m 2610.32,1195.2 c -3.14,1.96 -8.43,3.14 -13.53,3.14 -13.43,0 -21.07,-7.55 -21.07,-22.15 v -18.23 h -10.68 v -14.31 h 10.68 v -13.82 h 16.47 v 13.82 h 15.98 v 14.31 h -15.98 v 18.13 c 0,5.19 2.45,7.74 7.35,7.74 2.74,0 5.19,-0.59 7.45,-1.67 z"
         id="path922" />
      <path
         class="cls-4"
         d="m 2641.18,1143.65 h 16.37 v 14.31 h -16.37 v 39.01 h -16.47 v -39.01 h -10.68 v -14.31 h 10.68 v -4.21 c 0,-14.6 7.64,-22.15 21.07,-22.15 5.1,0 10.39,1.18 13.53,3.14 l -3.33,13.04 c -2.25,-1.08 -4.7,-1.67 -7.45,-1.67 -4.9,0 -7.35,2.55 -7.35,7.74 v 4.12 z"
         id="path924" />
      <path
         class="cls-4"
         d="m 2691.46,1142.28 c 16.27,-0.29 28.91,12.25 28.62,28.03 0.29,15.78 -12.35,28.32 -28.62,28.03 -16.27,0.29 -28.91,-12.25 -28.62,-28.03 -0.29,-15.78 12.35,-28.32 28.62,-28.03 z m 0,14.41 c -7.74,0 -12.94,5.68 -12.94,13.62 0,7.94 5.19,13.62 12.94,13.62 7.75,0 12.94,-5.68 12.94,-13.62 0,-7.94 -5.19,-13.62 -12.94,-13.62 z"
         id="path926" />
      <path
         class="cls-4"
         d="m 2766.04,1158.74 c -1.86,-0.59 -4.02,-0.88 -6.66,-0.88 -7.94,0 -13.43,4.9 -13.43,12.74 v 26.36 h -16.46 v -53.32 h 16.46 v 7.84 c 2.45,-5.39 7.74,-8.82 13.72,-8.82 2.45,0 4.61,0.29 6.37,0.98 v 15.09 z"
         id="path928" />
      <path
         class="cls-4"
         d="m 2860.9,1196.97 h -16.47 v -29.21 c 0,-7.15 -3.14,-11.27 -8.62,-11.27 -5.78,0 -10.19,5 -10.19,13.13 v 27.34 h -16.47 v -29.21 c 0,-7.15 -3.14,-11.27 -8.62,-11.27 -5.78,0 -10.19,5 -10.19,13.13 v 27.34 h -16.46 v -53.32 h 16.46 v 6.57 c 3.04,-4.8 8.33,-7.94 14.31,-7.94 7.74,0 13.82,3.43 17.45,9.41 3.53,-5.98 9.51,-9.41 17.64,-9.41 13.23,0 21.17,9.31 21.17,24.31 v 30.38 z"
         id="path930" />
      <path
         class="cls-4"
         d="m 2918.42,1143.65 h 16.37 v 14.31 h -16.37 v 39.01 h -16.47 v -39.01 h -10.68 v -14.31 h 10.68 v -4.21 c 0,-14.6 7.64,-22.15 21.07,-22.15 5.1,0 10.39,1.18 13.53,3.14 l -3.33,13.04 c -2.25,-1.08 -4.7,-1.67 -7.45,-1.67 -4.9,0 -7.35,2.55 -7.35,7.74 v 4.12 z"
         id="path932" />
      <path
         class="cls-4"
         d="m 2968.7,1142.28 c 16.27,-0.29 28.91,12.25 28.62,28.03 0.29,15.78 -12.35,28.32 -28.62,28.03 -16.27,0.29 -28.91,-12.25 -28.62,-28.03 -0.29,-15.78 12.35,-28.32 28.62,-28.03 z m 0,14.41 c -7.74,0 -12.94,5.68 -12.94,13.62 0,7.94 5.19,13.62 12.94,13.62 7.75,0 12.94,-5.68 12.94,-13.62 0,-7.94 -5.19,-13.62 -12.94,-13.62 z"
         id="path934" />
      <path
         class="cls-4"
         d="m 3043.27,1158.74 c -1.86,-0.59 -4.02,-0.88 -6.66,-0.88 -7.94,0 -13.43,4.9 -13.43,12.74 v 26.36 h -16.46 v -53.32 h 16.46 v 7.84 c 2.45,-5.39 7.74,-8.82 13.72,-8.82 2.45,0 4.61,0.29 6.37,0.98 v 15.09 z"
         id="path936" />
      <path
         class="cls-4"
         d="m 3130.79,1143.65 v 48.42 c 0,17.54 -13.92,26.95 -30.38,26.95 -11.66,0 -20.78,-5.19 -25.78,-12.54 l 12.84,-7.84 c 2.65,3.82 7.15,6.47 12.94,6.47 8.72,0 13.92,-4.41 13.92,-13.04 v -3.92 c -3.43,4.7 -9.21,7.25 -15.78,7.25 -15,0 -25.88,-11.47 -25.88,-26.56 0,-15.09 10.88,-26.56 25.88,-26.56 6.57,0 12.35,2.55 15.78,7.25 v -5.88 h 16.47 z m -29.5,12.74 c -7.74,0 -12.94,5.1 -12.94,12.45 0,7.35 5.19,12.45 12.94,12.45 7.75,0 12.94,-5.1 12.94,-12.45 0,-7.35 -5.19,-12.45 -12.94,-12.45 z"
         id="path938" />
      <path
         class="cls-4"
         d="m 3198.31,1143.65 v 53.32 h -16.47 v -6.57 c -3.53,5.1 -9.21,7.94 -15.78,7.94 -15,0 -25.87,-12.25 -25.87,-28.03 0,-15.78 10.88,-28.03 25.87,-28.03 6.57,0 12.25,2.84 15.78,7.94 v -6.57 z m -29.5,12.84 c -7.74,0 -12.94,5.88 -12.94,13.82 0,7.94 5.19,13.82 12.94,13.82 7.75,0 12.94,-5.88 12.94,-13.82 0,-7.94 -5.19,-13.82 -12.94,-13.82 z"
         id="path940" />
      <path
         class="cls-4"
         d="m 3296.7,1196.97 h -16.46 v -29.21 c 0,-7.15 -3.14,-11.27 -8.62,-11.27 -5.78,0 -10.19,5 -10.19,13.13 v 27.34 h -16.47 v -29.21 c 0,-7.15 -3.14,-11.27 -8.62,-11.27 -5.78,0 -10.19,5 -10.19,13.13 v 27.34 h -16.46 v -53.32 h 16.46 v 6.57 c 3.04,-4.8 8.33,-7.94 14.31,-7.94 7.74,0 13.82,3.43 17.45,9.41 3.53,-5.98 9.51,-9.41 17.64,-9.41 13.23,0 21.17,9.31 21.17,24.31 v 30.38 z"
         id="path942" />
      <path
         class="cls-4"
         d="m 3321.69,1175.6 c 1.86,5.98 7.15,8.92 13.82,8.92 5,0 9.6,-2.25 11.86,-5.78 l 12.64,7.74 c -4.71,7.35 -14.21,11.86 -24.5,11.86 -17.54,0 -29.79,-11.86 -29.79,-28.03 -0.29,-15.98 12.05,-28.23 27.83,-28.03 16.07,0 27.83,10.98 27.83,26.95 0,2.45 -0.1,4.61 -0.29,6.37 z m 23.82,-10.68 c -0.69,-5.49 -5.29,-9.21 -11.86,-9.21 -5.59,0 -10.29,3.23 -11.96,9.21 z"
         id="path944" />
      <path
         class="cls-4"
         d="m 3379.02,1178.54 c 2.35,4.02 7.45,7.25 14.01,7.25 5.88,0 9.7,-1.47 9.7,-3.82 0,-2.65 -1.76,-3.72 -9.51,-5.39 l -6.96,-1.57 c -11.08,-2.45 -16.66,-7.35 -16.66,-15.49 0,-10.49 9.9,-17.25 23.91,-17.25 10.98,0 20.29,5.29 24.21,11.96 l -12.05,6.76 c -2.06,-3.53 -7.35,-6.17 -12.54,-6.17 -5.19,0 -8.13,1.47 -8.13,3.82 0,2.35 1.76,3.53 9.51,5.19 l 6.96,1.57 c 11.08,2.45 16.66,7.45 16.66,15.68 0,10.49 -10.78,17.25 -25.48,17.25 -6.08,0 -11.37,-1.27 -15.98,-3.82 -4.51,-2.55 -7.74,-5.59 -9.8,-9.11 z"
         id="path946" />
      <path
         class="cls-4"
         d="m 3486.52,1158.74 c -1.86,-0.59 -4.02,-0.88 -6.67,-0.88 -7.94,0 -13.43,4.9 -13.43,12.74 v 26.36 h -16.46 v -53.32 h 16.46 v 7.84 c 2.45,-5.39 7.74,-8.82 13.72,-8.82 2.45,0 4.61,0.29 6.37,0.98 v 15.09 z"
         id="path948" />
      <path
         class="cls-4"
         d="m 3547.87,1143.65 v 53.32 h -16.46 v -6.57 c -3.04,5 -8.72,7.94 -15.39,7.94 -13.72,0 -22.05,-9.11 -22.05,-24.31 v -30.38 h 16.47 v 29.21 c 0,7.45 3.53,11.27 9.7,11.27 6.57,0 11.27,-4.8 11.27,-13.13 v -27.34 h 16.46 z"
         id="path950" />
      <path
         class="cls-4"
         d="m 3613.14,1196.97 h -16.46 v -29.21 c 0,-7.45 -3.53,-11.27 -9.7,-11.27 -6.57,0 -11.27,4.8 -11.27,13.13 v 27.34 h -16.46 v -53.32 h 16.46 v 6.57 c 3.04,-5 8.72,-7.94 15.39,-7.94 13.72,0 22.05,9.11 22.05,24.31 v 30.38 z"
         id="path952" />
      <path
         class="cls-4"
         d="m 3678.01,1196.97 h -16.46 v -29.21 c 0,-7.45 -3.53,-11.27 -9.7,-11.27 -6.57,0 -11.27,4.8 -11.27,13.13 v 27.34 h -16.46 v -53.32 h 16.46 v 6.57 c 3.04,-5 8.72,-7.94 15.39,-7.94 13.72,0 22.05,9.11 22.05,24.31 v 30.38 z"
         id="path954" />
      <path
         class="cls-4"
         d="m 3697.22,1119.83 c 5.59,0 9.8,4.02 9.8,9.21 0,5.19 -4.21,9.21 -9.8,9.21 -5.59,0 -9.8,-4.02 -9.8,-9.21 0,-5.19 4.21,-9.21 9.8,-9.21 z m 8.23,23.82 v 53.32 h -16.46 v -53.32 z"
         id="path956" />
      <path
         class="cls-4"
         d="m 3770.72,1196.97 h -16.46 v -29.21 c 0,-7.45 -3.53,-11.27 -9.7,-11.27 -6.57,0 -11.27,4.8 -11.27,13.13 v 27.34 h -16.46 v -53.32 h 16.46 v 6.57 c 3.04,-5 8.72,-7.94 15.39,-7.94 13.72,0 22.05,9.11 22.05,24.31 v 30.38 z"
         id="path958" />
      <path
         class="cls-4"
         d="m 3837.85,1143.65 v 48.42 c 0,17.54 -13.92,26.95 -30.38,26.95 -11.66,0 -20.78,-5.19 -25.78,-12.54 l 12.84,-7.84 c 2.65,3.82 7.15,6.47 12.94,6.47 8.72,0 13.92,-4.41 13.92,-13.04 v -3.92 c -3.43,4.7 -9.21,7.25 -15.78,7.25 -15,0 -25.87,-11.47 -25.87,-26.56 0,-15.09 10.88,-26.56 25.87,-26.56 6.57,0 12.35,2.55 15.78,7.25 v -5.88 h 16.47 z m -29.5,12.74 c -7.74,0 -12.94,5.1 -12.94,12.45 0,7.35 5.19,12.45 12.94,12.45 7.75,0 12.94,-5.1 12.94,-12.45 0,-7.35 -5.19,-12.45 -12.94,-12.45 z"
         id="path960" />
      <path
         class="cls-4"
         d="m 3899.39,1142.28 c 16.27,-0.29 28.91,12.25 28.62,28.03 0.29,15.78 -12.35,28.32 -28.62,28.03 -16.27,0.29 -28.91,-12.25 -28.62,-28.03 -0.29,-15.78 12.35,-28.32 28.62,-28.03 z m 0,14.41 c -7.74,0 -12.94,5.68 -12.94,13.62 0,7.94 5.19,13.62 12.94,13.62 7.75,0 12.94,-5.68 12.94,-13.62 0,-7.94 -5.19,-13.62 -12.94,-13.62 z"
         id="path962" />
      <path
         class="cls-4"
         d="m 3991.31,1196.97 h -16.46 v -29.21 c 0,-7.45 -3.53,-11.27 -9.7,-11.27 -6.57,0 -11.27,4.8 -11.27,13.13 v 27.34 h -16.46 v -53.32 h 16.46 v 6.57 c 3.04,-5 8.72,-7.94 15.39,-7.94 13.72,0 22.05,9.11 22.05,24.31 v 30.38 z"
         id="path964" />
      <path
         class="cls-4"
         d="m 4066.97,1195.2 c -3.14,1.96 -8.43,3.14 -13.53,3.14 -13.43,0 -21.07,-7.55 -21.07,-22.15 v -18.23 h -10.68 v -14.31 h 10.68 v -13.82 h 16.46 v 13.82 h 15.98 v 14.31 h -15.98 v 18.13 c 0,5.19 2.45,7.74 7.35,7.74 2.74,0 5.19,-0.59 7.45,-1.67 l 3.33,13.04 z"
         id="path966" />
      <path
         class="cls-4"
         d="m 4128.71,1196.97 h -16.47 v -29.21 c 0,-7.45 -3.53,-11.27 -9.7,-11.27 -6.57,0 -11.27,4.8 -11.27,13.13 v 27.34 h -16.46 v -74 h 16.46 v 27.25 c 3.04,-5 8.72,-7.94 15.39,-7.94 13.72,0 22.05,9.11 22.05,24.31 v 30.38 z"
         id="path968" />
      <path
         class="cls-4"
         d="m 4153.69,1175.6 c 1.86,5.98 7.15,8.92 13.82,8.92 5,0 9.6,-2.25 11.86,-5.78 l 12.64,7.74 c -4.71,7.35 -14.21,11.86 -24.5,11.86 -17.54,0 -29.79,-11.86 -29.79,-28.03 -0.29,-15.98 12.05,-28.23 27.83,-28.03 16.07,0 27.83,10.98 27.83,26.95 0,2.45 -0.1,4.61 -0.29,6.37 z m 23.82,-10.68 c -0.69,-5.49 -5.29,-9.21 -11.86,-9.21 -5.59,0 -10.29,3.23 -11.96,9.21 z"
         id="path970" />
      <path
         class="cls-4"
         d="m 4278.35,1124.25 v 15.39 h -34.6 v 15.58 h 30.58 v 15.39 h -30.58 v 26.36 h -17.05 v -72.72 z"
         id="path972" />
      <path
         class="cls-4"
         d="m 4323.92,1158.74 c -1.86,-0.59 -4.02,-0.88 -6.67,-0.88 -7.94,0 -13.43,4.9 -13.43,12.74 v 26.36 h -16.46 v -53.32 h 16.46 v 7.84 c 2.45,-5.39 7.74,-8.82 13.72,-8.82 2.45,0 4.61,0.29 6.37,0.98 v 15.09 z"
         id="path974" />
      <path
         class="cls-4"
         d="m 4358.41,1142.28 c 16.27,-0.29 28.91,12.25 28.62,28.03 0.29,15.78 -12.35,28.32 -28.62,28.03 -16.27,0.29 -28.91,-12.25 -28.62,-28.03 -0.29,-15.78 12.35,-28.32 28.62,-28.03 z m 0,14.41 c -7.74,0 -12.94,5.68 -12.94,13.62 0,7.94 5.19,13.62 12.94,13.62 7.75,0 12.94,-5.68 12.94,-13.62 0,-7.94 -5.19,-13.62 -12.94,-13.62 z"
         id="path976" />
      <path
         class="cls-4"
         d="m 4404.67,1178.54 c 2.35,4.02 7.45,7.25 14.01,7.25 5.88,0 9.7,-1.47 9.7,-3.82 0,-2.65 -1.76,-3.72 -9.51,-5.39 l -6.96,-1.57 c -11.08,-2.45 -16.66,-7.35 -16.66,-15.49 0,-10.49 9.9,-17.25 23.91,-17.25 10.98,0 20.29,5.29 24.21,11.96 l -12.05,6.76 c -2.06,-3.53 -7.35,-6.17 -12.54,-6.17 -5.19,0 -8.13,1.47 -8.13,3.82 0,2.35 1.76,3.53 9.51,5.19 l 6.96,1.57 c 11.08,2.45 16.66,7.45 16.66,15.68 0,10.49 -10.78,17.25 -25.48,17.25 -6.08,0 -11.37,-1.27 -15.98,-3.82 -4.51,-2.55 -7.74,-5.59 -9.8,-9.11 z"
         id="path978" />
      <path
         class="cls-4"
         d="m 4493.26,1195.2 c -3.14,1.96 -8.43,3.14 -13.53,3.14 -13.43,0 -21.07,-7.55 -21.07,-22.15 v -18.23 h -10.68 v -14.31 h 10.68 v -13.82 h 16.46 v 13.82 h 15.98 v 14.31 h -15.98 v 18.13 c 0,5.19 2.45,7.74 7.35,7.74 2.74,0 5.19,-0.59 7.45,-1.67 l 3.33,13.04 z"
         id="path980" />
      <path
         class="cls-4"
         d="m 4533.34,1198.34 c -6.57,0 -12.25,-2.84 -15.78,-7.94 v 6.57 h -16.46 v -74 h 16.46 v 27.25 c 3.53,-5.1 9.21,-7.94 15.78,-7.94 15,0 25.87,12.25 25.87,28.03 0,15.78 -10.88,28.03 -25.87,28.03 z m -2.74,-41.85 c -7.74,0 -12.94,5.88 -12.94,13.82 0,7.94 5.19,13.82 12.94,13.82 7.75,0 12.94,-5.88 12.94,-13.82 0,-7.94 -5.19,-13.82 -12.94,-13.82 z"
         id="path982" />
      <path
         class="cls-4"
         d="m 4576.85,1119.83 c 5.59,0 9.8,4.02 9.8,9.21 0,5.19 -4.21,9.21 -9.8,9.21 -5.59,0 -9.8,-4.02 -9.8,-9.21 0,-5.19 4.21,-9.21 9.8,-9.21 z m 8.23,23.82 v 53.32 h -16.46 v -53.32 z"
         id="path984" />
      <path
         class="cls-4"
         d="m 4637.61,1195.2 c -3.14,1.96 -8.43,3.14 -13.53,3.14 -13.43,0 -21.07,-7.55 -21.07,-22.15 v -18.23 h -10.68 v -14.31 h 10.68 v -13.82 h 16.46 v 13.82 h 15.98 v 14.31 h -15.98 v 18.13 c 0,5.19 2.45,7.74 7.35,7.74 2.74,0 5.19,-0.59 7.45,-1.67 l 3.33,13.04 z"
         id="path986" />
      <path
         class="cls-4"
         d="m 4659.07,1175.6 c 1.86,5.98 7.15,8.92 13.82,8.92 5,0 9.6,-2.25 11.86,-5.78 l 12.64,7.74 c -4.7,7.35 -14.21,11.86 -24.5,11.86 -17.54,0 -29.79,-11.86 -29.79,-28.03 -0.29,-15.98 12.05,-28.23 27.83,-28.03 16.07,0 27.83,10.98 27.83,26.95 0,2.45 -0.1,4.61 -0.29,6.37 z m 23.82,-10.68 c -0.69,-5.49 -5.29,-9.21 -11.86,-9.21 -5.59,0 -10.29,3.23 -11.96,9.21 z"
         id="path988" />
      <path
         class="cls-4"
         d="m 4745.7,1175.6 c 1.86,5.98 7.15,8.92 13.82,8.92 5,0 9.6,-2.25 11.86,-5.78 l 12.64,7.74 c -4.7,7.35 -14.21,11.86 -24.5,11.86 -17.54,0 -29.79,-11.86 -29.79,-28.03 -0.29,-15.98 12.05,-28.23 27.83,-28.03 16.07,0 27.83,10.98 27.83,26.95 0,2.45 -0.1,4.61 -0.29,6.37 z m 23.82,-10.68 c -0.69,-5.49 -5.29,-9.21 -11.86,-9.21 -5.59,0 -10.29,3.23 -11.96,9.21 z"
         id="path990" />
      <path
         class="cls-4"
         d="m 4848.71,1196.97 h -16.47 v -29.21 c 0,-7.45 -3.53,-11.27 -9.7,-11.27 -6.57,0 -11.27,4.8 -11.27,13.13 v 27.34 h -16.46 v -53.32 h 16.46 v 6.57 c 3.04,-5 8.72,-7.94 15.39,-7.94 13.72,0 22.05,9.11 22.05,24.31 v 30.38 z"
         id="path992" />
      <path
         class="cls-4"
         d="m 4915.83,1143.65 v 48.42 c 0,17.54 -13.92,26.95 -30.38,26.95 -11.66,0 -20.78,-5.19 -25.78,-12.54 l 12.84,-7.84 c 2.65,3.82 7.15,6.47 12.94,6.47 8.72,0 13.92,-4.41 13.92,-13.04 v -3.92 c -3.43,4.7 -9.21,7.25 -15.78,7.25 -15,0 -25.87,-11.47 -25.87,-26.56 0,-15.09 10.88,-26.56 25.87,-26.56 6.57,0 12.35,2.55 15.78,7.25 v -5.88 h 16.47 z m -29.5,12.74 c -7.74,0 -12.94,5.1 -12.94,12.45 0,7.35 5.19,12.45 12.94,12.45 7.75,0 12.94,-5.1 12.94,-12.45 0,-7.35 -5.19,-12.45 -12.94,-12.45 z"
         id="path994" />
      <path
         class="cls-4"
         d="m 4935.43,1119.83 c 5.59,0 9.8,4.02 9.8,9.21 0,5.19 -4.21,9.21 -9.8,9.21 -5.59,0 -9.8,-4.02 -9.8,-9.21 0,-5.19 4.21,-9.21 9.8,-9.21 z m 8.23,23.82 v 53.32 h -16.46 v -53.32 z"
         id="path996" />
      <path
         class="cls-4"
         d="m 5008.93,1196.97 h -16.46 v -29.21 c 0,-7.45 -3.53,-11.27 -9.7,-11.27 -6.57,0 -11.27,4.8 -11.27,13.13 v 27.34 h -16.46 v -53.32 h 16.46 v 6.57 c 3.04,-5 8.72,-7.94 15.39,-7.94 13.72,0 22.05,9.11 22.05,24.31 v 30.38 z"
         id="path998" />
      <path
         class="cls-4"
         d="m 5033.92,1175.6 c 1.86,5.98 7.15,8.92 13.82,8.92 5,0 9.6,-2.25 11.86,-5.78 l 12.64,7.74 c -4.7,7.35 -14.21,11.86 -24.5,11.86 -17.54,0 -29.79,-11.86 -29.79,-28.03 -0.29,-15.98 12.05,-28.23 27.83,-28.03 16.07,0 27.83,10.98 27.83,26.95 0,2.45 -0.1,4.61 -0.29,6.37 z m 23.82,-10.68 c -0.69,-5.49 -5.29,-9.21 -11.86,-9.21 -5.59,0 -10.29,3.23 -11.96,9.21 z"
         id="path1000" />
      <path
         class="cls-4"
         d="m 5091.35,1178.54 c 5.98,0 10.39,4.21 10.39,10 0,5.79 -4.41,10 -10.39,10 -5.98,0 -10.39,-4.21 -10.39,-10 0,-5.79 4.41,-10 10.39,-10 z"
         id="path1002" />
    </g>
    <path
       class="cls-8"
       d="m 5115.69,591.04 145.87,-84.22 c 9.49,-5.48 21.17,-5.48 30.66,0 l 145.87,84.22 c 9.49,5.48 15.33,15.6 15.33,26.55 v 168.43 c 0,10.95 -5.84,21.07 -15.33,26.55 l -145.87,84.22 c -9.49,5.48 -21.17,5.48 -30.66,0 l -145.87,-84.22 c -9.49,-5.48 -15.33,-15.6 -15.33,-26.55 V 617.59 c 0,-10.95 5.84,-21.07 15.33,-26.55 z"
       id="path1006" />
    <path
       class="cls-8"
       d="m 5229.71,1045.45 418.91,-241.86 c 27.24,-15.73 60.8,-15.73 88.05,0 l 418.91,241.86 c 27.24,15.73 44.02,44.79 44.02,76.25 v 483.71 c 0,31.46 -16.78,60.52 -44.02,76.25 l -418.91,241.86 c -27.24,15.73 -60.8,15.73 -88.05,0 l -418.91,-241.86 c -27.24,-15.73 -44.02,-44.79 -44.02,-76.25 V 1121.7 c 0,-31.46 16.78,-60.52 44.02,-76.25 z"
       id="path1008" />
    <path
       class="cls-8"
       d="m 5321.74,37.84 238.5,-137.7 c 15.51,-8.95 34.62,-8.95 50.13,0 l 238.5,137.7 c 15.51,8.95 25.06,25.5 25.06,43.41 v 275.4 c 0,17.91 -9.55,34.46 -25.06,43.41 l -238.5,137.7 c -15.51,8.95 -34.62,8.95 -50.13,0 l -238.5,-137.7 c -15.51,-8.95 -25.06,-25.5 -25.06,-43.41 V 81.25 c 0,-17.91 9.55,-34.46 25.06,-43.41 z"
       id="path1010" />
    <path
       class="cls-8"
       d="m 5115.69,1947.93 145.87,-84.22 c 9.49,-5.48 21.17,-5.48 30.66,0 l 145.87,84.22 c 9.49,5.48 15.33,15.6 15.33,26.55 v 168.43 c 0,10.95 -5.84,21.07 -15.33,26.55 l -145.87,84.22 c -9.49,5.48 -21.17,5.48 -30.66,0 l -145.87,-84.22 c -9.49,-5.48 -15.33,-15.6 -15.33,-26.55 v -168.43 c 0,-10.95 5.84,-21.07 15.33,-26.55 z"
       id="path1012" />
    <path
       class="cls-8"
       d="m 403.96,1639.08 145.87,-84.22 c 9.49,-5.48 21.17,-5.48 30.66,0 l 145.87,84.22 c 9.49,5.48 15.33,15.6 15.33,26.55 v 168.43 c 0,10.95 -5.84,21.07 -15.33,26.55 l -145.87,84.22 c -9.49,5.48 -21.17,5.48 -30.66,0 l -145.87,-84.22 c -9.49,-5.48 -15.33,-15.6 -15.33,-26.55 v -168.43 c 0,-10.95 5.84,-21.07 15.33,-26.55 z"
       id="path1014" />
    <path
       class="cls-8"
       d="m 5180.29,355.69 -145.87,84.22 c -9.49,5.48 -21.17,5.48 -30.66,0 l -145.87,-84.22 c -9.49,-5.48 -15.33,-15.6 -15.33,-26.55 V 160.71 c 0,-10.95 5.84,-21.07 15.33,-26.55 l 145.87,-84.22 c 9.49,-5.48 21.17,-5.48 30.66,0 l 145.87,84.22 c 9.49,5.48 15.33,15.6 15.33,26.55 v 168.43 c 0,10.95 -5.84,21.07 -15.33,26.55 z"
       id="path1016" />
    <path
       class="cls-8"
       d="m 1142.11,2169.46 -145.87,84.22 c -9.49,5.48 -21.17,5.48 -30.66,0 l -145.87,-84.22 c -9.49,-5.48 -15.33,-15.6 -15.33,-26.55 v -168.43 c 0,-10.95 5.84,-21.07 15.33,-26.55 l 145.87,-84.22 c 9.49,-5.48 21.17,-5.48 30.66,0 l 145.87,84.22 c 9.49,5.48 15.33,15.6 15.33,26.55 v 168.43 c 0,10.95 -5.84,21.07 -15.33,26.55 z"
       id="path1018" />
    <path
       class="cls-8"
       d="m -163.56,936.18 238.5,-137.7 c 15.51,-8.95 34.62,-8.95 50.13,0 l 238.5,137.7 c 15.51,8.95 25.06,25.5 25.06,43.41 v 275.4 c 0,17.91 -9.55,34.46 -25.06,43.41 l -238.5,137.7 c -15.51,8.95 -34.62,8.95 -50.13,0 l -238.5,-137.7 c -15.51,-8.95 -25.06,-25.5 -25.06,-43.41 v -275.4 c 0,-17.91 9.55,-34.46 25.06,-43.41 z"
       id="path1020" />
    <g
       id="g1087">
      <g
         id="TJ8Lj2.tif">
        <g
           id="g1036">
          <path
             class="cls-4"
             d="m 1565.88,1511.42 h -113.44 v 22.54 h 113.44 z m 0,45.35 h -113.44 v 22.53 h 113.44 z"
             id="path1022" />
          <path
             class="cls-4"
             d="m 1315.95,1624.72 c 0.03,-0.52 0.08,-1.04 0.08,-1.56 0,-36.7 0,-73.4 0,-110.1 0,-0.52 0,-1.03 0,-1.62 h 113.53 v 22.58 h -90.74 v 68.02 h 90.82 c 0,0.5 0,0.93 0,1.36 0,6.66 0,13.32 0,19.98 0,0.45 0.03,0.9 0.05,1.34 h -113.75 z"
             id="path1024" />
          <path
             class="cls-4"
             d="m 1134.31,1511.36 h 113.5 c 0.02,0.42 0.06,0.77 0.06,1.13 0,37.11 0,74.22 0,111.33 0,0.3 -0.02,0.6 -0.04,0.9 H 1134.3 c 0,-7.56 0,-15.11 0,-22.67 h 90.77 v -68.02 h -90.77 v -22.67 z"
             id="path1026" />
          <path
             class="cls-4"
             d="m 1270.54,1624.72 c 0.02,-0.52 0.05,-1.04 0.05,-1.57 0,-36.72 0,-73.45 0,-110.17 v -1.53 h 22.66 c 0.02,0.4 0.05,0.8 0.05,1.2 0,36.99 0,73.97 0,110.96 0,0.37 -0.04,0.74 -0.06,1.12 h -22.71 z"
             id="path1028" />
          <path
             class="cls-4"
             d="m 1452.4,1624.72 v -22.6 h 113.53 v 22.6 z"
             id="path1030" />
          <path
             class="cls-4"
             d="m 1565.88,1511.42 v 22.54 h -113.44 v -22.54 z"
             id="path1032" />
          <path
             class="cls-4"
             d="m 1565.89,1556.77 v 22.53 h -113.44 v -22.53 z"
             id="path1034" />
        </g>
      </g>
      <path
         class="cls-6"
         d="m 2242.56,1588.57 v 28.8 l 84.46,-49.43 -54.12,-31.67 h 72.59 v -24.86 h -102.92 v 35.92 l 35.24,20.62 -35.24,20.62 z m -291.95,-28.54 h -21.23 v 7.92 c 0,17.59 -14.25,31.85 -31.83,31.85 -17.58,0 -31.83,-14.26 -31.83,-31.85 0,-17.59 14.25,-31.85 31.83,-31.85 h 7.91 v -21.25 c 0,-2.09 -1.69,-3.79 -3.78,-3.79 h -4.13 c -31.39,0 -56.84,25.47 -56.84,56.89 0,31.42 25.45,56.89 56.84,56.89 31.39,0 56.84,-25.47 56.84,-56.89 v -4.13 c 0,-2.09 -1.69,-3.79 -3.79,-3.79 v 0 z m 115.2,64.46 h 24.84 v -113.08 h -24.84 z m 70.45,-113.08 h -28.78 l 25.78,48.97 h 22.48 c 2.85,0 4.68,-3.03 3.35,-5.56 z m 30.81,113.08 59.66,-113.08 h -28.78 l -45.27,85.79 14.38,27.29 z m -380.59,-113.07 -26.48,45.33 -26.48,-45.33 h -35.88 v 113.07 h 24.84 v -82.71 l 37.52,64.23 55.25,-94.59 h -28.78 z m 11.03,113.07 h 24.84 v -64.11 h -21.06 c -2.09,0 -3.79,1.7 -3.79,3.79 v 0 60.32 z m 190.16,0 h 24.84 v -88.21 h 33.38 v -24.86 h -91.6 v 24.86 h 33.38 z m 303.16,-21.08 c 0,-2.09 1.7,-3.79 3.79,-3.79 h 50.88 v 24.86 h -54.67 v -21.08 z"
         id="path1039" />
      <path
         class="cls-4"
         d="m 2684.85,1559.28 c -7.72,0.02 -16.32,2.59 -21.18,6.41 l -2.56,2.05 1.1,-4.36 c 0.02,-0.13 0.02,-0.17 0.03,-0.24 0,-0.25 -0.09,-0.68 -0.43,-1.08 -0.61,-0.68 -1.93,-1.41 -5.2,-1.41 -2.23,0 -4.05,0.37 -5.28,1.09 l -0.07,0.04 -0.05,0.04 c 0,0 -0.1,0.08 -0.21,0.17 -0.02,0.02 -0.64,0.56 -0.78,0.7 -5.76,5.02 -9.64,6.7 -13.46,6.7 h -0.03 c 0,0 -0.07,0 -0.13,0 -2.38,-0.04 -3.86,-1.07 -5,-2.61 -4.12,-5.63 -11.8,-7.39 -18.77,-7.4 h -0.33 c -14.49,0.02 -26.91,5.01 -31.08,12.96 -4.8,9.25 -12.36,28.91 -12.69,29.8 -0.71,1.73 -1.08,3.45 -1.08,5.11 0,2.09 0.59,4.06 1.76,5.79 3.12,4.59 9.67,7.06 17.93,7.06 h 0.31 c 14.49,-0.03 28.17,-4.89 32.39,-14.48 3.45,-7.96 8.77,-22.67 10.4,-26.91 0.58,0.06 1.15,0.07 1.72,0.07 5.13,-0.02 10.23,-1.92 13.57,-4.28 -2.16,5.83 -7.54,20.41 -12.95,35 -3.49,9.42 -6.97,18.85 -9.59,25.93 -1.31,3.53 -2.4,6.5 -3.18,8.57 -0.38,1.04 -0.69,1.84 -0.89,2.41 -0.1,0.27 -0.18,0.48 -0.23,0.63 -0.03,0.08 -0.05,0.13 -0.06,0.17 -0.04,0.07 -0.16,0.31 -0.16,0.65 0,0.22 0.06,0.49 0.21,0.75 0.55,0.83 2.17,2.16 9.23,2.18 9.81,-0.02 11.6,-3.19 11.8,-3.72 l 10.82,-29.45 c 2.4,0.98 6.91,2.24 11.49,2.24 11.29,0.08 24.43,-3.83 33.72,-30.26 1.63,-4.55 2.89,-8.35 3.76,-12 0.46,-1.9 0.68,-3.67 0.68,-5.32 0,-3.1 -0.82,-5.77 -2.49,-7.89 -2.66,-3.36 -7.33,-5.11 -13.06,-5.11 m -72.27,14.7 -12.09,31.71 -0.02,0.05 c -1.29,4.22 -4.34,6.34 -9.35,6.38 -1.73,0 -3.05,-0.64 -3.69,-1.61 -0.36,-0.55 -0.55,-1.18 -0.55,-1.96 0,-0.83 0.23,-1.83 0.69,-2.94 l 12.11,-31.78 c 1.31,-4.27 4.35,-6.4 9.38,-6.44 1.74,0 3.04,0.64 3.68,1.61 0.34,0.52 0.5,1.08 0.5,1.81 0,0.84 -0.23,1.9 -0.66,3.17 m 66.63,1.6 v 0 c -0.64,1.75 -10.48,28.62 -10.51,28.71 -1.91,4.69 -5.14,7.31 -8.49,7.31 -3.08,0 -5.53,-0.74 -6.72,-1.38 l 12.71,-33.57 c 1.88,-5.12 5.51,-7.88 10.13,-7.9 1.44,0 2.32,0.42 2.86,1.15 0.39,0.54 0.62,1.26 0.62,2.26 0,0.91 -0.19,2.06 -0.61,3.4 m -90.76,-41.66 c 0.81,-2.52 1.22,-4.92 1.22,-7.16 0,-3.3 -0.9,-6.26 -2.67,-8.71 -3.39,-4.64 -9.63,-6.99 -17.88,-6.98 h -69.58 c 0,0 -0.11,-0.02 -0.21,-0.02 -0.86,-0.04 -3.91,0.41 -5.02,4.28 -0.17,0.59 -0.28,1.13 -0.28,1.64 0,0.6 0.14,1.18 0.49,1.64 0.82,1 1.97,1.04 2.32,1.06 0.04,0 0.07,0 0.1,0 h 27.33 c 0,0 -36.78,100.53 -36.78,100.53 -0.02,0.06 -0.02,0.09 -0.03,0.11 -0.08,0.13 -0.16,0.32 -0.17,0.62 0,0.17 0.05,0.39 0.16,0.59 0.61,0.94 2.32,2.28 11.18,2.32 h 0.14 c 11.03,0 13.53,-2.95 13.91,-3.54 0.05,-0.05 0.07,-0.09 0.07,-0.12 v 0 c 0,0 0,-0.03 0.02,-0.03 l 8.71,-22.81 0.94,-0.06 c 0.3,-0.05 26.42,-1.56 38.38,-9.36 11.08,-7.29 15.68,-20.85 15.91,-21.51 0.12,-0.32 11.31,-31.14 11.76,-32.51 m -24,-2.67 -13.75,38.06 c -0.22,0.58 -5.63,15.6 -23.5,17.9 l -2.72,0.4 3.95,-10.93 c 4.13,-11.36 14.79,-40.75 20.36,-56.75 h 9.06 c 3.44,0 5.75,1.03 6.9,2.77 0.61,0.91 0.92,2.01 0.92,3.32 0,1.47 -0.4,3.22 -1.23,5.23 m 331.73,33.07 c -2.67,-3.36 -7.33,-5.11 -13.07,-5.11 -7.71,0 -16.31,2.58 -21.18,6.41 -0.02,0.02 -1.25,1.08 -2.6,2.38 l 1.16,-4.7 c 0.02,-0.17 0.02,-0.18 0.02,-0.24 0,-0.25 -0.1,-0.68 -0.44,-1.08 -0.59,-0.68 -1.92,-1.4 -5.18,-1.41 -5.29,-0.03 -6.62,2.28 -6.7,2.55 -0.02,0.06 -3.61,9.78 -7.22,19.54 -1.81,4.88 -3.62,9.76 -4.97,13.43 -0.68,1.83 -1.24,3.36 -1.65,4.44 -0.2,0.53 -0.36,0.97 -0.46,1.25 -0.05,0.14 -0.1,0.26 -0.13,0.33 0,0.03 -0.02,0.07 -0.02,0.08 -2.52,4.42 -8.2,7.12 -11.59,7.09 -0.72,0 -1.32,-0.11 -1.74,-0.31 -0.5,-0.27 -1.42,-0.8 -1.44,-2.47 0,-0.57 0.12,-1.27 0.43,-2.14 h 0.03 c 0.03,-0.19 1.1,-3.1 12.83,-34.89 0.14,-0.36 0.41,-1.23 0.43,-2.59 0,-0.92 -0.16,-1.98 -0.68,-3.02 -1.07,-2.09 -3.24,-3.53 -6.29,-4.34 -1.7,-0.46 -3.17,-0.65 -4.46,-0.65 -5.82,0 -7.54,3.94 -7.64,4.37 0,0.02 -0.02,0.07 -0.03,0.11 -0.06,-0.08 -0.1,-0.14 -0.17,-0.21 -1.68,-2.02 -6.47,-3.9 -10.66,-3.94 -10.06,-0.07 -24.77,3.37 -33.72,30.38 l -0.99,2.91 -1.94,5.92 c 0,0 -0.03,0.07 -0.05,0.07 -5.57,6.41 -17.09,10.38 -24.68,10.35 -3.16,0 -7.51,-1.34 -10.1,-5.06 -1.1,-1.58 -2.14,-3.96 -2.14,-7.42 0,-2.24 0.44,-4.96 1.61,-8.19 l 21.32,-58.94 c 2.26,-5.75 7.36,-8.66 15.78,-8.7 h 0.18 c 2.65,0.02 7.41,1.4 9.06,3.52 0.47,0.61 0.68,1.19 0.68,1.77 0,0.16 -0.02,0.35 -0.05,0.53 -1.03,4.67 -4.35,12.18 -6.24,16.21 -0.2,0.45 -0.33,0.93 -0.33,1.41 0,0.81 0.33,1.61 0.91,2.24 0.7,0.77 1.88,1.36 3.37,1.36 0.68,0 1.42,-0.12 2.23,-0.41 l 11.24,-4.06 c 1.23,-0.51 2.52,-1.59 2.97,-2.25 2.63,-4.6 4.45,-9.29 5.4,-13.97 0.13,-0.65 0.2,-1.29 0.18,-1.91 0.02,-2.02 -0.7,-3.92 -2.04,-5.59 -3.97,-4.87 -13.02,-7.75 -23.82,-7.91 h -0.84 c -24.19,-0.03 -42.66,13.18 -50.45,36.15 0,0.02 -11.7,32.46 -11.73,32.58 -2.15,5.46 -3.23,10.64 -3.23,15.36 0,5.16 1.31,9.77 3.94,13.64 4.63,6.78 13.06,10.6 23.06,10.6 11.84,-0.02 24.82,-3.77 32.51,-9.54 0.03,-0.02 0.07,-0.05 0.1,-0.07 0.02,0.05 0.03,0.1 0.04,0.15 1.59,5.99 7.18,9.45 15.13,9.42 8.74,0 17.59,-3.41 23.78,-9.13 0.05,-0.05 0.1,-0.1 0.16,-0.15 -0.02,0.08 -0.02,0.16 -0.02,0.23 0,2.31 0.62,4.32 2.07,5.79 1.63,1.67 4.13,2.52 6.96,2.52 4.56,0 11.08,-1.45 16.08,-4.5 l -11.2,30.29 c 0,0 -0.9,2.42 -0.91,2.42 -0.05,0.09 -0.15,0.3 -0.16,0.66 0,0.2 0.06,0.49 0.21,0.74 0.55,0.83 2.17,2.16 9.25,2.18 9.8,-0.02 11.59,-3.2 11.79,-3.72 l 10.87,-29.58 c 2.39,0.98 6.91,2.24 11.49,2.26 11.29,0.07 24.43,-3.85 33.73,-30.27 1.62,-4.56 2.87,-8.36 3.75,-12.01 0.45,-1.89 0.68,-3.67 0.68,-5.32 0,-3.09 -0.82,-5.76 -2.49,-7.88 m -97.62,38.59 v 0 l -0.02,0.02 c -1.8,5.02 -5.55,7.88 -10.12,7.9 -1.44,-0.02 -2.32,-0.43 -2.86,-1.16 -0.4,-0.54 -0.62,-1.25 -0.62,-2.25 0,-0.92 0.19,-2.07 0.62,-3.45 0,0.03 2.66,-7.25 5.35,-14.54 1.35,-3.66 2.69,-7.31 3.71,-10.04 0.5,-1.38 0.92,-2.52 1.21,-3.32 0.15,-0.4 0.27,-0.71 0.36,-0.93 0.03,-0.11 0.06,-0.19 0.09,-0.25 v -0.03 c 1.93,-4.75 5.16,-7.38 8.5,-7.37 3.5,0.05 5.19,1.13 6,3.3 l -12.21,32.14 z m 78.92,-27.39 v 0.02 c 0,0 0,0 0,0 0,0 0,0.02 -0.02,0.02 v 0 0 c -0.48,1.32 -10.47,28.59 -10.5,28.71 -1.9,4.65 -5.12,7.28 -8.49,7.26 -3.08,0.02 -5.52,-0.73 -6.71,-1.36 l 12.7,-33.58 c 1.88,-5.11 5.52,-7.88 10.14,-7.9 1.44,0 2.32,0.43 2.87,1.16 0.39,0.53 0.61,1.24 0.62,2.23 0,0.92 -0.2,2.06 -0.62,3.43"
         id="path1041" />
      <path
         class="cls-4"
         d="m 3172.17,1509.17 c -7.11,0 -12.87,5.77 -12.87,12.89 v 0 c 0,7.12 5.76,12.89 12.87,12.89 v 0 c 7.11,0 12.87,-5.77 12.88,-12.89 v 0 c 0,-7.12 -5.76,-12.89 -12.87,-12.89 0,0 0,0 0,0 z m 113.59,2.36 32.52,113.74 h 23.29 l 16.42,-54.1 16,54.1 h 22.53 l 33.56,-113.74 h -21.44 l -23,79.31 -23.46,-79.31 h -20.51 l 6.84,20.9 -17.71,58.41 -23.77,-79.31 z m -236.23,1.05 4.99,20.18 v 91.76 h 59.36 c 22.55,-2.72 30.66,-20.96 29.98,-32.14 -0.65,-10.4 -2.64,-21.35 -12.09,-27.02 5.39,-5.49 7.95,-13.92 7.46,-21.81 -0.18,-18.63 -15.75,-30.98 -30.21,-30.98 h -59.49 z m 24.75,19.54 h 31.6 c 12.56,0 13.5,12.75 13.5,12.75 -1.41,12.75 -10.99,12.06 -10.99,12.06 h -34.11 z m 510.12,9.58 c 0,0 -17.8,-0.43 -24.83,12.17 v -10.08 h -20.87 v 81.46 h 20.87 v -45.74 c 0,0 4.18,-15.22 24.83,-16.3 v -21.52 z m 52.41,0 c -23.48,0 -42.52,19.14 -42.52,42.76 0,23.48 18.84,42.57 42.19,42.75 15.35,0.57 33.65,-7.68 37.66,-16.37 l -16.22,-9.1 c -4.2,5.37 -12.43,7.81 -21.44,7.8 -10.07,-0.05 -18.59,-6.96 -21.76,-16.56 h 43.73 v 0.02 c 0,0 19.98,0 19.98,0 0.59,-2.81 0.89,-5.67 0.9,-8.54 0,-23.61 -19.04,-42.76 -42.52,-42.76 z m -394.42,0.4 c -23.94,0 -43.34,18.96 -43.35,42.35 v 0 c 0,23.39 19.41,42.35 43.34,42.35 v 0 c 23.94,0 43.34,-18.96 43.35,-42.35 v 0 c 0,-23.39 -19.41,-42.35 -43.34,-42.35 0,0 0,0 0,0 z m 231.06,1.7 c -23.51,0 -42.58,18.24 -42.58,40.73 v 0 c 0,22.5 19.06,40.73 42.58,40.73 8.03,-0.02 15.9,-2.21 22.69,-6.32 v 6.32 h 19.89 v -81.46 h -19.89 v 6.28 c -6.79,-4.1 -14.66,-6.28 -22.69,-6.28 z m -312.15,0.45 v 80.28 h 20.72 v -80.28 z m 475.3,15.69 c 10.6,0 19.52,7.61 22.3,17.99 h -44.6 c 2.77,-10.38 11.7,-17.99 22.3,-17.99 z m -394.2,1.7 c 12.44,0 22.53,10.05 22.53,22.44 0,12.39 -10.09,22.44 -22.53,22.44 -12.44,0 -22.53,-10.05 -22.53,-22.44 0,-12.39 10.09,-22.44 22.53,-22.44 z m 230.59,0.92 c 12.44,0 22.53,9.91 22.53,22.13 0,12.22 -10.09,22.13 -22.53,22.13 v 0 c -12.44,0 -22.53,-9.91 -22.53,-22.13 v 0 c 0,-12.22 10.09,-22.13 22.53,-22.13 z m -398.7,13.92 h 33.96 c 7.69,0 14.75,6.59 15.22,15.13 0.47,8.54 -11.3,12.97 -11.3,12.97 h -37.88 v -28.11 z"
         id="path1043" />
      <g
         id="g1075">
        <path
           class="cls-4"
           d="m 4202.66,1535.68 c -3.13,0 -6.26,0 -9.39,0.02 -2.84,0 -5.66,0.39 -8.43,0.92 -5.33,1.01 -10.37,2.85 -15.04,5.66 -2.62,1.57 -5.06,3.36 -7.39,5.32 -1.37,1.15 -2.41,2.56 -3.66,3.81 -15.59,15.53 -31.16,31.08 -46.74,46.61 -0.54,0.54 -1.1,1.04 -1.66,1.55 -0.39,0.35 -0.43,0.7 -0.02,1.07 0.13,0.11 0.24,0.24 0.36,0.36 3.94,3.94 7.88,7.89 11.82,11.83 0.12,0.12 0.24,0.24 0.36,0.36 0.27,0.26 0.58,0.25 0.74,-0.07 0.37,-0.76 1.13,-1.11 1.69,-1.66 15.56,-15.56 31.15,-31.09 46.73,-46.63 0.18,-0.18 0.4,-0.33 0.53,-0.54 0.98,-1.59 2.56,-2.56 3.98,-3.63 3.21,-2.41 6.7,-4.35 10.72,-5.17 1.6,-0.32 3.19,-0.79 4.83,-0.81 3.51,-0.04 7.02,-0.03 10.53,-0.05 0.01,0.93 0.04,1.85 0.04,2.78 0,23.78 0,47.56 0,71.34 0,0.3 0,0.59 0.01,0.89 0,0.31 0.17,0.46 0.47,0.46 0.25,0 0.51,0 0.76,0 5.41,0 10.82,0 16.23,0 0.25,0 0.51,-0.01 0.76,0 0.44,0.02 0.6,-0.22 0.58,-0.63 0,-0.21 0,-0.42 0,-0.63 0,-23.32 0,-46.64 0,-69.95 0,-1.1 0.01,-2.19 0,-3.29 0,-1.01 -0.02,-1.04 -0.96,-1.04 -5.96,0 -11.92,0.03 -17.88,0.05 0,-6.15 -0.02,-12.3 -0.02,-18.45 0,-0.17 0.04,-0.33 0.07,-0.5 0.51,-0.01 1.01,-0.03 1.52,-0.03 5.37,0 10.73,0 16.1,0 1.12,0 1.12,0 1.12,-1.09 0,-5.44 0,-10.87 0,-16.31 0,-0.25 -0.02,-0.51 0,-0.76 0.03,-0.49 -0.2,-0.69 -0.68,-0.67 -0.3,0.01 -0.59,0 -0.89,0 -5.2,0 -10.39,0 -15.59,0 -0.3,0 -0.59,0.02 -0.89,0 -0.5,-0.04 -0.69,0.2 -0.67,0.67 0.01,0.29 0,0.59 0,0.88 0,5.77 0,11.55 0,17.32 z m -103.2,21.86 c -0.35,0.37 -0.55,0.59 -0.76,0.8 -6.84,7 -13.97,13.72 -20.67,20.87 -3.44,3.66 -7.09,7.12 -10.65,10.67 -6.25,6.23 -12.51,12.45 -18.77,18.68 -0.71,0.71 -0.75,0.89 -0.17,1.72 0.33,0.47 0.76,0.88 1.12,1.34 2.89,3.73 6.25,6.97 10.11,9.69 6.91,4.88 14.6,7.68 23,8.56 4.27,0.45 8.52,0.25 12.74,-0.56 7.87,-1.51 14.96,-4.69 21.21,-9.71 0.99,-0.79 0.98,-0.8 0,-1.71 -0.12,-0.11 -0.19,-0.27 -0.31,-0.38 -1.55,-1.56 -3.02,-3.2 -4.67,-4.64 -2.45,-2.14 -4.7,-4.48 -6.91,-6.85 -0.48,-0.52 -0.79,-0.49 -1.24,-0.14 -1.18,0.93 -2.44,1.76 -3.79,2.4 -3.1,1.48 -6.35,2.55 -9.81,2.82 -4.71,0.36 -9.28,-0.3 -13.73,-1.83 -0.43,-0.15 -0.85,-0.34 -1.05,-1.01 0.14,-0.1 0.38,-0.22 0.56,-0.39 6.16,-6.07 12.29,-12.18 18.47,-18.23 10.62,-10.4 21.08,-20.97 31.61,-31.47 0.99,-0.99 1,-0.88 0.15,-2.06 -2.28,-3.15 -4.78,-6.08 -7.74,-8.65 -2.78,-2.42 -5.78,-4.51 -9.03,-6.23 -3.08,-1.63 -6.32,-2.89 -9.7,-3.84 -5.09,-1.42 -10.27,-2.01 -15.53,-1.61 -5.43,0.41 -10.68,1.64 -15.73,3.78 -5.03,2.13 -9.48,5.12 -13.51,8.75 -2.34,2.11 -4.36,4.52 -6.15,7.14 -2.87,4.19 -6.16,10.11 -7.63,17.17 -0.97,4.64 -1.48,9.29 -1,14.06 0.5,4.95 1.58,9.72 3.47,14.32 0.17,0.41 0.3,0.87 0.68,1.26 0.25,-0.23 0.47,-0.42 0.67,-0.62 3.23,-3.22 6.45,-6.45 9.68,-9.67 1.29,-1.28 2.58,-2.56 3.86,-3.85 0.35,-0.35 0.66,-0.7 0.6,-1.29 -0.3,-2.77 -0.34,-5.54 0.09,-8.31 1.47,-9.35 6.57,-16.16 14.77,-20.72 3.03,-1.68 6.34,-2.7 9.8,-3.02 2.69,-0.25 5.4,-0.36 8.09,0.13 0.47,0.09 0.83,0.41 1.28,0.47 2.28,0.32 4.34,1.26 6.57,2.17 z m -255.71,72.48 c 1.39,0 2.8,0.13 4.18,-0.02 5.05,-0.57 10.02,-1.5 14.82,-3.23 6.35,-2.28 12.1,-5.59 17.3,-9.88 0.99,-0.82 0.99,-0.83 0.03,-1.78 -2.31,-2.29 -4.62,-4.57 -6.93,-6.87 -1.59,-1.58 -3.16,-3.17 -4.75,-4.75 -0.62,-0.62 -1.02,-0.71 -1.64,-0.18 -0.74,0.63 -1.61,1.03 -2.4,1.57 -3.74,2.55 -7.85,4.24 -12.24,5.34 -3.24,0.81 -6.51,0.93 -9.81,0.9 -3.65,-0.04 -7.23,-0.64 -10.66,-1.82 -5.99,-2.07 -11.22,-5.39 -15.68,-9.9 -0.92,-0.93 -1.58,-2.06 -2.42,-3.06 -0.65,-0.77 -1.29,-1.57 -1.85,-2.39 -0.73,-1.06 -1.23,-2.28 -1.83,-3.43 -2.09,-4.05 -3.43,-8.34 -3.84,-12.87 -0.59,-6.53 0.07,-12.92 2.76,-19 0.61,-1.37 1.11,-2.81 1.9,-4.08 0.89,-1.44 1.79,-2.9 2.95,-4.16 0.09,-0.09 0.16,-0.2 0.25,-0.29 0.4,-0.39 0.3,-0.73 -0.08,-1.07 -0.22,-0.2 -0.42,-0.41 -0.63,-0.62 -3.79,-3.8 -7.58,-7.59 -11.36,-11.39 -0.88,-0.89 -1.03,-0.92 -1.86,0.07 -0.85,1.02 -1.64,2.1 -2.44,3.17 -0.83,1.1 -1.49,2.31 -2.27,3.44 -1.45,2.11 -2.45,4.45 -3.59,6.72 -0.92,1.85 -1.51,3.85 -2.11,5.83 -1.11,3.68 -1.94,7.42 -2.35,11.24 -0.48,4.42 -0.38,8.83 0.2,13.25 0.8,6.07 2.45,11.9 5.22,17.35 7.98,15.76 20.55,25.92 37.71,30.33 4.38,1.13 8.85,1.82 13.42,1.57 z m 503.62,-94.24 c -0.1,0.63 0.41,0.86 0.78,1.18 0.22,0.19 0.54,0.28 0.72,0.5 1.29,1.57 2.81,2.91 4.24,4.34 3.9,3.92 7.86,7.79 11.71,11.76 0.76,0.78 1.47,1.06 2.5,1.06 6.89,-0.03 13.79,-0.02 20.68,0 1.48,0 2.96,-0.04 4.43,0.18 1.97,0.29 3.85,0.86 5.73,1.5 2,0.69 3.9,1.56 5.69,2.68 1.64,1.03 3.1,2.28 4.59,3.5 2.22,1.82 3.83,4.11 5.24,6.53 1.31,2.24 2.21,4.68 2.88,7.2 0.48,1.83 0.81,3.65 0.8,5.55 -0.01,2.15 0.04,4.3 0.04,6.45 0,13.54 0,27.08 0,40.62 0,1.3 -0.19,1.29 1.31,1.29 5.41,0 10.83,0 16.24,0 1.21,0 1.22,-0.01 1.22,-1.17 0,-15.4 0,-30.79 0,-46.19 0,-3.17 -0.21,-6.32 -0.86,-9.43 -1.68,-8.07 -5.25,-15.24 -10.62,-21.46 -3.54,-4.11 -7.79,-7.43 -12.54,-10.08 -7.23,-4.03 -15.02,-6.08 -23.3,-6.1 -13.45,-0.05 -26.9,-0.01 -40.34,0 -0.37,0 -0.75,-0.1 -1.13,0.11 z m -83.12,24.78 c 1.36,-1.26 3.01,-1.96 4.55,-2.84 2.22,-1.27 4.7,-1.94 7.17,-2.52 3.07,-0.72 6.19,-0.7 9.32,-0.32 1.11,0.13 2.13,0.57 3.21,0.76 1.58,0.28 3.11,0.89 4.53,1.55 2.06,0.96 4.05,2.08 5.85,3.53 2.5,2.01 4.71,4.27 6.42,6.99 0.71,1.12 1.33,2.28 1.92,3.48 1,2.04 1.61,4.22 2.18,6.38 0.88,3.29 0.56,6.69 0.04,10.01 -0.27,1.77 -0.84,3.5 -1.36,5.22 -0.68,2.24 -1.81,4.26 -3.22,6.13 q -0.84,1.11 0.17,2.12 c 3.95,3.94 7.89,7.88 11.84,11.81 0.74,0.74 0.74,0.74 1.4,-0.1 2.78,-3.52 5.15,-7.28 6.9,-11.43 1.62,-3.84 2.69,-7.83 3.31,-11.92 0.58,-3.85 0.56,-7.71 0.12,-11.6 -0.79,-6.86 -2.97,-13.22 -6.38,-19.18 -1.74,-3.03 -3.82,-5.83 -6.33,-8.27 -1.49,-1.45 -2.94,-2.92 -4.66,-4.18 -3.04,-2.23 -6.12,-4.34 -9.55,-5.93 -2.9,-1.34 -5.89,-2.37 -9.01,-3.13 -1.98,-0.49 -3.99,-0.79 -5.98,-1.15 -2.31,-0.41 -4.68,-0.38 -7.02,-0.26 -3.28,0.17 -6.52,0.65 -9.72,1.46 -2.42,0.61 -4.74,1.47 -7.06,2.37 -2.44,0.95 -4.71,2.25 -6.92,3.63 -1.7,1.07 -3.37,2.24 -4.87,3.66 0.16,0.51 0.51,0.91 0.89,1.3 2.22,2.31 4.59,4.46 6.71,6.87 1.67,1.9 3.56,3.6 5.53,5.58 z m -29.97,21.44 c 0.09,8.04 1.52,15.13 4.91,21.75 4.57,8.91 11.1,15.98 19.98,20.74 9.11,4.88 18.83,6.53 29.08,5.14 8.68,-1.18 16.37,-4.61 23.18,-10.07 0.16,-0.13 0.33,-0.26 0.49,-0.4 0.27,-0.24 0.28,-0.5 0.03,-0.76 -0.18,-0.18 -0.36,-0.36 -0.54,-0.54 -3.86,-3.85 -7.72,-7.69 -11.58,-11.54 -1.02,-1.02 -1.02,-1.03 -2.16,-0.23 -2.47,1.75 -5.21,2.98 -8.05,3.95 -2.91,1 -5.96,1.12 -9.02,1.07 -5.31,-0.09 -10.14,-1.64 -14.52,-4.61 -6.49,-4.41 -10.71,-10.39 -12.34,-18.09 -0.91,-4.27 -0.69,-8.54 0.4,-12.77 0.87,-3.35 2.39,-6.39 4.4,-9.19 0.55,-0.77 0.53,-0.82 -0.14,-1.48 -1.62,-1.6 -3.26,-3.19 -4.87,-4.8 -2.36,-2.36 -4.7,-4.73 -7.07,-7.09 -0.76,-0.76 -1.13,-0.69 -1.82,0.15 -1.15,1.41 -2.09,2.96 -3.05,4.49 -4.77,7.62 -7.26,15.91 -7.34,24.27 z m 107.39,-40.61 c 0,0.39 0,0.87 0,1.36 0,18.93 0,37.87 0,56.8 0,9.78 0,19.57 0,29.35 0,1.3 -0.12,1.25 1.22,1.25 5.54,0 11.08,0 16.61,0 1.15,0 1.15,0 1.15,-1.2 0,-22.64 0,-45.29 0.03,-67.93 0,-0.83 -0.25,-1.42 -0.84,-2 -5.9,-5.86 -11.78,-11.75 -17.66,-17.62 -0.09,-0.09 -0.2,-0.14 -0.51,0 z m -497.43,-24.66 c -4.11,0.03 -7.77,0.39 -11.37,1.09 -3.29,0.64 -6.52,1.51 -9.65,2.75 -3.59,1.41 -7.03,3.09 -10.27,5.21 -2.08,1.37 -4.08,2.82 -6.02,4.38 -0.7,0.57 -0.74,0.63 -0.1,1.34 0.2,0.22 0.42,0.42 0.63,0.63 1.68,1.65 3.38,3.28 5.12,4.88 2.27,2.08 4.38,4.33 6.57,6.5 0.63,0.63 0.64,0.6 1.34,0.07 0.83,-0.62 1.67,-1.24 2.54,-1.81 8.29,-5.38 17.35,-7.05 27.04,-5.48 4.11,0.66 8.05,1.88 11.71,3.93 2.93,1.64 5.65,3.54 8,5.95 0.63,0.65 0.66,0.61 1.19,0.07 3.42,-3.44 6.85,-6.89 10.28,-10.33 0.66,-0.66 1.31,-1.32 1.99,-1.95 0.43,-0.4 0.51,-0.71 0.02,-1.13 -0.58,-0.49 -1.1,-1.05 -1.67,-1.54 -4.06,-3.51 -8.44,-6.51 -13.31,-8.82 -7.76,-3.68 -15.89,-5.65 -24.06,-5.73 z m 507,132.2 c 0,0 0,-0.03 0,-0.04 -2.87,0 -5.74,0 -8.62,0 -0.92,0 -0.92,0 -0.95,0.88 0,0.17 0,0.34 0,0.51 0,5.35 0,10.7 0,16.05 q 0,1.52 1.52,1.54 c 0.25,0 0.51,0 0.76,0 4.98,0 9.97,0 14.95,0 1.64,0 1.68,-0.02 1.74,-1.69 0,-0.13 0,-0.25 0,-0.38 0,-5.27 0.01,-10.53 0.01,-15.8 0,-1.03 -0.03,-1.06 -1.06,-1.07 -2.79,0 -5.58,0 -8.36,0 z"
           id="path1045" />
        <path
           class="cls-4"
           d="m 4039.7,1536.81 c 0,5.36 0,10.71 -0.02,16.07 0,0.21 0,0.42 0,0.63 -0.02,1.08 -0.02,1.1 -1.15,1.1 -5.46,0 -10.91,0 -16.37,0.01 -0.25,0 -0.51,0 -0.76,-0.01 -0.48,-0.03 -0.7,0.2 -0.69,0.68 0.01,0.38 0,0.76 0,1.14 v 72.01 c 0,1.88 0.1,1.65 -1.61,1.65 -5.24,0 -10.49,0 -15.73,0 -0.3,0 -0.59,-0.01 -0.89,0 -0.43,0.01 -0.61,-0.21 -0.6,-0.62 0,-0.3 0,-0.59 0,-0.89 0,-24.09 0,-48.18 0,-72.26 0,-1.99 0.09,-1.7 -1.67,-1.7 -5.29,0 -10.57,0 -15.86,0 -0.3,0 -0.59,0 -0.89,0 -0.37,-0.01 -0.55,0.16 -0.55,0.52 0,0.42 -0.02,0.84 -0.02,1.26 0,24 0,48.01 0,72.01 0,1.96 0.09,1.67 -1.71,1.67 -5.41,0 -10.83,0.01 -16.24,0.02 -0.99,0 -1,0 -1.04,-0.95 -0.02,-0.46 0,-0.93 0,-1.39 0,-23.08 0,-46.15 0,-69.23 0,-1.05 -0.03,-2.11 -0.02,-3.16 0,-0.5 -0.11,-0.76 -0.71,-0.75 -3.59,0.04 -7.2,-0.09 -10.78,0.09 -3.46,0.18 -6.83,1.02 -9.98,2.51 -2.77,1.3 -5.17,3.13 -7.34,5.28 -8.36,8.31 -16.72,16.61 -25.07,24.92 -6.52,6.49 -13.03,13 -19.56,19.5 -1.27,1.27 -2.45,2.64 -3.85,3.82 -0.52,-0.29 -0.82,-0.76 -1.2,-1.14 -3.84,-3.81 -7.66,-7.63 -11.49,-11.44 -0.73,-0.72 -0.74,-0.86 -0.02,-1.64 0.46,-0.5 0.96,-0.96 1.44,-1.43 13.73,-13.69 27.43,-27.4 41.2,-41.05 2.21,-2.19 4.27,-4.53 6.61,-6.58 0.8,-0.7 1.65,-1.38 2.56,-1.97 1.51,-0.97 2.81,-2.21 4.39,-3.1 5.61,-3.15 11.53,-5.35 17.95,-6.25 4.76,-0.67 9.54,-0.39 14.31,-0.49 0.3,0 0.59,-0.01 0.89,0 0.49,0.03 0.7,-0.19 0.68,-0.67 -0.01,-0.29 0,-0.59 0,-0.89 0,-5.32 0,-10.63 0,-15.94 0,-0.25 0,-0.51 0,-0.76 0.01,-0.47 0.24,-0.7 0.72,-0.66 0.04,0 0.08,0 0.13,0 5.75,0 11.5,0 17.25,0 0.85,0 0.87,0.03 0.87,0.99 0.02,3.63 0.02,7.26 0.03,10.88 0,2.36 0,4.72 -0.02,7.07 h -0.02 v 0.02 c -5.91,0 -11.82,0 -17.73,0.02 -1.07,0 -1.1,0.01 -1.1,1 -0.01,5.56 -0.01,11.13 0,16.69 0,1.03 0.04,1.05 1.06,1.05 5.58,0 11.16,0.01 16.74,0.01 0.98,0 0.99,-0.02 1.01,-0.96 0.02,-0.89 0.02,-1.77 0.02,-2.66 0,-5.05 0,-10.11 0,-15.16 h 0.02 v -0.02 c 5.7,0 11.41,-0.02 17.11,-0.03 0.17,0 0.34,0 0.51,0 1.35,0 1.37,0 1.37,-1.42 0.01,-5.32 0.01,-10.63 0.02,-15.94 0,-0.3 0,-0.59 0,-0.89 -0.02,-0.49 0.23,-0.68 0.7,-0.66 0.21,0 0.42,0 0.63,0 5.41,0 10.83,0 16.24,0 0.21,0 0.42,0 0.63,0 0.42,0 0.63,0.18 0.62,0.6 0,0.3 0,0.59 0,0.89 0,5.32 0,10.63 0,15.95 0,0.3 0,0.59 0,0.89 0,0.42 0.22,0.61 0.63,0.6 0.21,0 0.42,0 0.63,0 5.5,0 11,0 16.49,0 0.21,0 0.42,0 0.63,0 0.44,0 0.6,0.24 0.59,0.64 0,0.17 0,0.34 0,0.51 z"
           id="path1047" />
        <rect
           class="cls-4"
           x="3982.8601"
           y="1535.6801"
           width="0.02"
           height="0.02"
           id="rect1049" />
        <path
           class="cls-4"
           d="m 4099.46,1557.55 c -2.23,-0.91 -4.29,-1.85 -6.57,-2.17 -0.45,-0.06 -0.8,-0.39 -1.28,-0.47 -2.69,-0.49 -5.41,-0.38 -8.09,-0.13 -3.45,0.33 -6.77,1.34 -9.8,3.02 -8.19,4.56 -13.29,11.37 -14.77,20.72 -0.44,2.76 -0.39,5.54 -0.09,8.31 0.06,0.59 -0.25,0.94 -0.6,1.29 -1.28,1.29 -2.57,2.56 -3.86,3.85 -3.23,3.22 -6.45,6.45 -9.68,9.67 -0.2,0.2 -0.42,0.39 -0.67,0.62 -0.39,-0.39 -0.51,-0.84 -0.68,-1.26 -1.89,-4.6 -2.97,-9.37 -3.47,-14.32 -0.48,-4.77 0.04,-9.42 1,-14.06 1.47,-7.06 4.76,-12.98 7.63,-17.17 1.79,-2.62 3.8,-5.03 6.15,-7.14 4.03,-3.63 8.48,-6.61 13.51,-8.75 5.04,-2.14 10.29,-3.37 15.73,-3.78 5.26,-0.39 10.44,0.19 15.53,1.61 3.38,0.94 6.62,2.21 9.7,3.84 3.25,1.72 6.24,3.81 9.03,6.23 2.95,2.57 5.45,5.5 7.74,8.65 0.85,1.18 0.85,1.07 -0.15,2.06 -10.53,10.5 -20.99,21.06 -31.61,31.47 -6.18,6.05 -12.31,12.16 -18.47,18.23 -0.18,0.18 -0.42,0.3 -0.56,0.39 0.21,0.67 0.62,0.86 1.05,1.01 4.45,1.54 9.02,2.19 13.73,1.83 3.46,-0.26 6.71,-1.34 9.81,-2.82 1.34,-0.64 2.6,-1.47 3.79,-2.4 0.45,-0.36 0.76,-0.38 1.24,0.14 2.21,2.37 4.46,4.71 6.91,6.85 1.65,1.44 3.12,3.09 4.67,4.64 0.12,0.12 0.19,0.27 0.31,0.38 0.98,0.91 0.98,0.92 0,1.71 -6.25,5.02 -13.34,8.2 -21.21,9.71 -4.22,0.81 -8.47,1.01 -12.74,0.56 -8.4,-0.88 -16.09,-3.67 -23,-8.56 -3.86,-2.73 -7.23,-5.96 -10.11,-9.69 -0.36,-0.46 -0.79,-0.86 -1.12,-1.34 -0.58,-0.83 -0.55,-1.01 0.17,-1.72 6.26,-6.23 12.52,-12.45 18.77,-18.68 3.56,-3.55 7.21,-7.01 10.65,-10.67 6.7,-7.14 13.83,-13.87 20.67,-20.87 0.2,-0.21 0.4,-0.43 0.76,-0.8 z"
           id="path1051" />
        <path
           class="cls-4"
           d="m 3843.74,1630.02 c -4.56,0.25 -9.03,-0.45 -13.42,-1.57 -17.16,-4.41 -29.73,-14.57 -37.71,-30.33 -2.76,-5.46 -4.42,-11.28 -5.22,-17.35 -0.58,-4.41 -0.68,-8.83 -0.2,-13.25 0.42,-3.82 1.24,-7.56 2.35,-11.24 0.6,-1.99 1.18,-3.99 2.11,-5.83 1.13,-2.27 2.13,-4.61 3.59,-6.72 0.78,-1.13 1.44,-2.34 2.27,-3.44 0.8,-1.06 1.59,-2.14 2.44,-3.17 0.83,-1 0.97,-0.96 1.86,-0.07 3.78,3.8 7.57,7.6 11.36,11.39 0.21,0.21 0.41,0.43 0.63,0.62 0.38,0.34 0.48,0.68 0.08,1.07 -0.09,0.09 -0.16,0.2 -0.25,0.29 -1.16,1.26 -2.05,2.72 -2.95,4.16 -0.79,1.26 -1.29,2.71 -1.9,4.08 -2.69,6.07 -3.35,12.46 -2.76,19 0.41,4.53 1.75,8.82 3.84,12.87 0.59,1.15 1.1,2.37 1.83,3.43 0.56,0.83 1.2,1.62 1.85,2.39 0.83,1 1.49,2.12 2.42,3.06 4.46,4.51 9.69,7.84 15.68,9.9 3.43,1.18 7.01,1.78 10.66,1.82 3.3,0.04 6.57,-0.08 9.81,-0.9 4.39,-1.1 8.5,-2.8 12.24,-5.34 0.79,-0.54 1.66,-0.95 2.4,-1.57 0.62,-0.53 1.02,-0.44 1.64,0.18 1.59,1.58 3.16,3.17 4.75,4.75 2.31,2.29 4.62,4.58 6.93,6.87 0.96,0.95 0.96,0.96 -0.03,1.78 -5.2,4.28 -10.95,7.6 -17.3,9.88 -4.8,1.72 -9.77,2.66 -14.82,3.23 -1.38,0.16 -2.79,0.02 -4.18,0.02 z"
           id="path1053" />
        <path
           class="cls-4"
           d="m 4347.37,1535.79 c 0.38,-0.21 0.76,-0.11 1.13,-0.11 13.45,0 26.9,-0.04 40.34,0 8.28,0.03 16.07,2.07 23.3,6.1 4.75,2.65 9,5.97 12.54,10.08 5.37,6.22 8.94,13.39 10.62,21.46 0.65,3.11 0.86,6.26 0.86,9.43 0,15.4 0,30.79 0,46.19 0,1.15 0,1.16 -1.22,1.17 -5.41,0 -10.83,0 -16.24,0 -1.5,0 -1.31,0.01 -1.31,-1.29 0,-13.54 0,-27.08 0,-40.62 0,-2.15 -0.06,-4.3 -0.04,-6.45 0,-1.89 -0.31,-3.72 -0.8,-5.55 -0.67,-2.53 -1.57,-4.96 -2.88,-7.2 -1.41,-2.42 -3.02,-4.71 -5.24,-6.53 -1.49,-1.22 -2.95,-2.47 -4.59,-3.5 -1.8,-1.12 -3.7,-2 -5.69,-2.68 -1.87,-0.64 -3.76,-1.21 -5.73,-1.5 -1.47,-0.22 -2.95,-0.18 -4.43,-0.18 -6.89,-0.02 -13.79,-0.03 -20.68,0 -1.03,0 -1.74,-0.28 -2.5,-1.06 -3.85,-3.97 -7.81,-7.84 -11.71,-11.76 -1.43,-1.43 -2.95,-2.78 -4.24,-4.34 -0.18,-0.22 -0.5,-0.31 -0.72,-0.5 -0.37,-0.31 -0.88,-0.55 -0.78,-1.18 z"
           id="path1055" />
        <path
           class="cls-4"
           d="m 4264.25,1560.56 c -1.97,-1.97 -3.86,-3.68 -5.53,-5.58 -2.12,-2.41 -4.49,-4.56 -6.71,-6.87 -0.38,-0.39 -0.73,-0.79 -0.89,-1.3 1.5,-1.42 3.16,-2.59 4.87,-3.66 2.2,-1.38 4.47,-2.68 6.92,-3.63 2.32,-0.9 4.64,-1.76 7.06,-2.37 3.2,-0.81 6.43,-1.29 9.72,-1.46 2.34,-0.12 4.71,-0.15 7.02,0.26 2,0.36 4,0.66 5.98,1.15 3.12,0.76 6.11,1.79 9.01,3.13 3.43,1.59 6.51,3.7 9.55,5.93 1.71,1.26 3.16,2.72 4.66,4.18 2.51,2.45 4.59,5.24 6.33,8.27 3.41,5.96 5.6,12.32 6.38,19.18 0.45,3.89 0.46,7.75 -0.12,11.6 -0.62,4.1 -1.69,8.09 -3.31,11.92 -1.75,4.15 -4.12,7.91 -6.9,11.43 -0.66,0.83 -0.66,0.83 -1.4,0.1 -3.95,-3.94 -7.9,-7.87 -11.84,-11.81 q -1.01,-1.01 -0.17,-2.12 c 1.41,-1.87 2.54,-3.89 3.22,-6.13 0.52,-1.72 1.08,-3.45 1.36,-5.22 0.52,-3.33 0.83,-6.72 -0.04,-10.01 -0.58,-2.16 -1.19,-4.33 -2.18,-6.38 -0.58,-1.2 -1.21,-2.36 -1.92,-3.48 -1.72,-2.72 -3.92,-4.97 -6.42,-6.99 -1.8,-1.45 -3.79,-2.57 -5.85,-3.53 -1.43,-0.67 -2.95,-1.27 -4.53,-1.55 -1.09,-0.2 -2.1,-0.63 -3.21,-0.76 -3.13,-0.38 -6.26,-0.4 -9.32,0.32 -2.47,0.58 -4.95,1.25 -7.17,2.52 -1.54,0.88 -3.2,1.58 -4.55,2.84 z"
           id="path1057" />
        <path
           class="cls-4"
           d="m 4234.28,1582 c 0.08,-8.36 2.57,-16.65 7.34,-24.27 0.96,-1.53 1.9,-3.08 3.05,-4.49 0.69,-0.84 1.05,-0.91 1.82,-0.15 2.36,2.35 4.71,4.73 7.07,7.09 1.61,1.61 3.25,3.2 4.87,4.8 0.66,0.65 0.69,0.71 0.14,1.48 -2.01,2.81 -3.53,5.85 -4.4,9.19 -1.1,4.22 -1.31,8.49 -0.4,12.77 1.63,7.7 5.85,13.68 12.34,18.09 4.38,2.97 9.21,4.52 14.52,4.61 3.06,0.05 6.1,-0.07 9.02,-1.07 2.84,-0.97 5.58,-2.21 8.05,-3.95 1.13,-0.8 1.14,-0.78 2.16,0.23 3.86,3.85 7.72,7.69 11.58,11.54 0.18,0.18 0.36,0.35 0.54,0.54 0.25,0.26 0.25,0.52 -0.03,0.76 -0.16,0.14 -0.33,0.27 -0.49,0.4 -6.81,5.46 -14.5,8.89 -23.18,10.07 -10.24,1.39 -19.97,-0.26 -29.08,-5.14 -8.88,-4.76 -15.41,-11.83 -19.98,-20.74 -3.39,-6.63 -4.82,-13.72 -4.91,-21.75 z"
           id="path1059" />
        <path
           class="cls-4"
           d="m 4202.59,1554.63 c -3.51,0.01 -7.02,0 -10.53,0.05 -1.65,0.02 -3.23,0.48 -4.83,0.81 -4.01,0.81 -7.51,2.76 -10.72,5.17 -1.42,1.06 -3,2.04 -3.98,3.63 -0.13,0.21 -0.35,0.36 -0.53,0.54 -15.58,15.54 -31.16,31.08 -46.73,46.63 -0.56,0.56 -1.31,0.91 -1.69,1.66 -0.16,0.32 -0.46,0.34 -0.74,0.07 -0.12,-0.12 -0.24,-0.24 -0.36,-0.36 -3.94,-3.94 -7.88,-7.89 -11.82,-11.83 -0.12,-0.12 -0.23,-0.25 -0.36,-0.36 -0.41,-0.37 -0.37,-0.71 0.02,-1.07 0.56,-0.51 1.13,-1.02 1.66,-1.55 15.58,-15.54 31.16,-31.08 46.74,-46.61 1.25,-1.24 2.29,-2.66 3.66,-3.81 2.33,-1.96 4.77,-3.75 7.39,-5.32 4.67,-2.8 9.71,-4.64 15.04,-5.66 2.77,-0.53 5.59,-0.91 8.43,-0.92 3.13,0 6.26,-0.01 9.39,-0.02 v -0.02 c -0.04,0.17 -0.08,0.33 -0.08,0.5 0,6.15 0.01,12.3 0.02,18.45 0,0 0,0.01 0,0.01 z"
           id="path1061" />
        <path
           class="cls-4"
           d="m 4341.67,1541.39 c 0.31,-0.15 0.41,-0.1 0.51,0 5.88,5.88 11.76,11.76 17.66,17.62 0.58,0.58 0.84,1.17 0.84,2 -0.02,22.64 -0.02,45.29 -0.03,67.93 0,1.2 0,1.2 -1.15,1.2 -5.54,0 -11.08,0 -16.61,0 -1.33,0 -1.22,0.05 -1.22,-1.25 0,-9.78 0,-19.57 0,-29.35 0,-18.93 0,-37.87 0,-56.8 0,-0.48 0,-0.97 0,-1.36 z"
           id="path1063" />
        <path
           class="cls-4"
           d="m 4202.6,1554.62 c 5.96,-0.02 11.92,-0.04 17.88,-0.05 0.94,0 0.95,0.03 0.96,1.04 0.01,1.1 0,2.19 0,3.29 0,23.32 0,46.64 0,69.95 0,0.21 0,0.42 0,0.63 0.01,0.4 -0.14,0.64 -0.58,0.63 -0.25,0 -0.51,0 -0.76,0 -5.41,0 -10.82,0 -16.23,0 -0.25,0 -0.51,0 -0.76,0 -0.31,0 -0.47,-0.16 -0.47,-0.46 0,-0.3 -0.01,-0.59 -0.01,-0.89 0,-23.78 0,-47.56 0,-71.34 0,-0.93 -0.03,-1.85 -0.04,-2.78 0,0 0,-0.01 0,-0.01 z"
           id="path1065" />
        <path
           class="cls-4"
           d="m 3844.24,1516.73 c 8.16,0.09 16.3,2.05 24.06,5.73 4.87,2.31 9.25,5.31 13.31,8.82 0.57,0.5 1.09,1.05 1.67,1.54 0.49,0.41 0.41,0.73 -0.02,1.13 -0.68,0.63 -1.33,1.29 -1.99,1.95 -3.43,3.44 -6.85,6.88 -10.28,10.33 -0.54,0.54 -0.56,0.58 -1.19,-0.07 -2.35,-2.41 -5.07,-4.31 -8,-5.95 -3.66,-2.04 -7.6,-3.26 -11.71,-3.93 -9.7,-1.57 -18.75,0.11 -27.04,5.48 -0.87,0.57 -1.71,1.19 -2.54,1.81 -0.71,0.53 -0.71,0.56 -1.34,-0.07 -2.19,-2.17 -4.31,-4.42 -6.57,-6.5 -1.74,-1.6 -3.44,-3.22 -5.12,-4.88 -0.21,-0.21 -0.43,-0.41 -0.63,-0.63 -0.64,-0.71 -0.61,-0.78 0.1,-1.34 1.93,-1.56 3.94,-3.01 6.02,-4.38 3.23,-2.12 6.68,-3.8 10.27,-5.21 3.13,-1.23 6.36,-2.11 9.65,-2.75 3.61,-0.7 7.26,-1.06 11.37,-1.09 z"
           id="path1067" />
        <path
           class="cls-4"
           d="m 4351.23,1648.93 c 2.79,0 5.58,0 8.36,0 1.04,0 1.06,0.03 1.06,1.07 0,5.27 0,10.53 -0.01,15.8 0,0.13 0,0.25 0,0.38 -0.05,1.66 -0.09,1.69 -1.74,1.69 -4.98,0 -9.97,0 -14.95,0 -0.25,0 -0.51,0 -0.76,0 q -1.52,-0.02 -1.52,-1.54 c 0,-5.35 0,-10.7 0,-16.05 0,-0.17 0,-0.34 0,-0.51 0.03,-0.89 0.03,-0.88 0.95,-0.88 2.87,0 5.74,0 8.62,0 0,0.01 0,0.03 0,0.04 z"
           id="path1069" />
        <path
           class="cls-4"
           d="m 4202.66,1535.68 c 0,-5.77 0,-11.55 0,-17.32 0,-0.29 0,-0.59 0,-0.88 -0.02,-0.47 0.17,-0.71 0.67,-0.67 0.29,0.02 0.59,0 0.89,0 5.2,0 10.39,0 15.59,0 0.3,0 0.59,0.01 0.89,0 0.48,-0.02 0.71,0.18 0.68,0.67 -0.01,0.25 0,0.51 0,0.76 0,5.44 0,10.87 0,16.31 0,1.08 0,1.09 -1.12,1.09 -5.37,0 -10.73,0 -16.1,0 -0.51,0 -1.01,0.02 -1.52,0.03 0,0 0.01,0.02 0.01,0.02 z"
           id="path1071" />
        <polygon
           points="3982.86,1535.7 3982.86,1535.68 3982.88,1535.7 "
           id="polygon1073" />
      </g>
      <g
         id="g1085">
        <path
           id="path7928"
           class="cls-4"
           d="m 4707.3,1409.64 c -87.35,0 -158.41,71.05 -158.41,158.41 0,87.36 71.05,158.38 158.41,158.38 87.36,0 158.39,-71.07 158.39,-158.38 0,-87.31 -71.07,-158.41 -158.39,-158.41 z m 0,21.98 c 75.35,0 136.43,61.07 136.43,136.42 0,75.35 -61.07,136.42 -136.43,136.42 -75.36,0 -136.43,-61.07 -136.43,-136.42 0,-75.35 61.08,-136.42 136.43,-136.42 z" />
        <path
           id="path8072"
           class="cls-4"
           d="m 4695.57,1562.17 h -55.36 l 12.69,-19.84 h 34.4 l 12.56,-19.77 h -76.74 l -12.5,19.77 h 18.42 l -25.08,39.63 h 103.08 l 39.15,-62.17 14.16,22.51 h -12.22 l -12.49,19.87 h 37.25 l 12.53,19.79 h 23.77 l -63.01,-99.75 -50.62,79.96 z m -47.48,-79.23 -12.46,19.77 81.4,-0.03 12.47,-19.74 z" />
        <path
           id="path8092"
           class="cls-4"
           d="m 4631.58,1625.78 c 0,2.52 -0.88,4.72 -2.62,6.47 -1.77,1.76 -3.94,2.65 -6.45,2.65 h -10.69 c -2.57,0 -4.72,-0.87 -6.43,-2.57 -1.69,-1.7 -2.55,-3.81 -2.55,-6.4 v -4.24 h 6.59 l 1.01,3.92 c 0.43,1.64 1.54,2.47 3.35,2.47 h 7.27 c 0.92,0 1.64,-0.35 2.22,-0.98 0.55,-0.68 0.82,-1.54 0.82,-2.54 v -4.67 c 0,-2.28 -1,-3.46 -3.04,-3.46 h -9.14 c -2.48,0 -4.61,-0.87 -6.42,-2.61 -1.75,-1.82 -2.65,-3.98 -2.65,-6.52 v -6.14 c 0,-2.47 0.91,-4.6 2.65,-6.39 1.8,-1.79 3.94,-2.65 6.42,-2.65 h 10.6 c 2.51,0 4.64,0.85 6.37,2.52 1.75,1.7 2.57,3.84 2.57,6.4 v 3.84 h -6.55 l -0.98,-3.48 c -0.52,-1.67 -1.66,-2.48 -3.33,-2.48 h -7.15 c -0.95,0 -1.69,0.35 -2.25,1.02 -0.58,0.65 -0.84,1.49 -0.84,2.52 v 3.61 c 0,2.24 1.02,3.36 3.09,3.36 h 9.07 c 2.48,0 4.64,0.89 6.39,2.71 1.8,1.8 2.68,3.91 2.68,6.39 v 7.24 z" />
        <path
           id="path8096"
           class="cls-4"
           d="m 4668.96,1610.13 c 0,2.49 -0.92,4.64 -2.7,6.42 -1.8,1.79 -3.98,2.68 -6.48,2.68 h -11.77 v 15.69 h -7.57 v -42.79 h 19.34 c 2.49,0 4.67,0.89 6.48,2.65 1.77,1.76 2.7,3.89 2.7,6.36 v 8.98 z m -10.66,-11.09 h -10.28 v 13.27 h 10.28 l 2.19,-1 c 0.56,-0.66 0.84,-1.49 0.84,-2.54 v -6.23 c 0,-1.04 -0.27,-1.83 -0.84,-2.51 l -2.19,-1 z" />
        <path
           id="path8100"
           class="cls-4"
           d="m 4736.1,1634.92 -6.95,-16.73 h -7.18 v 16.73 h -7.59 v -42.79 h 18.94 c 2.54,0 4.67,0.89 6.43,2.64 1.76,1.79 2.67,3.94 2.67,6.37 v 7.46 c 0,1.95 -0.55,3.71 -1.6,5.25 -1.11,1.56 -2.49,2.67 -4.2,3.37 l 7.53,17.69 h -8.05 z m -4.21,-35.88 h -9.92 v 12.23 h 9.92 l 2.09,-0.95 c 0.58,-0.65 0.84,-1.47 0.84,-2.51 v -5.28 c 0,-1 -0.26,-1.82 -0.84,-2.51 z" />
        <path
           id="path8104"
           class="cls-4"
           d="m 4776.6,1599.03 h -10.97 v 35.88 h -7.56 v -35.88 h -10.9 v -6.89 h 29.43 z" />
        <path
           id="path8108"
           class="cls-4"
           d="m 4810.89,1625.78 c 0,2.52 -0.89,4.72 -2.62,6.47 -1.8,1.76 -3.95,2.65 -6.49,2.65 h -10.69 c -2.54,0 -4.67,-0.87 -6.42,-2.57 -1.69,-1.7 -2.57,-3.81 -2.57,-6.4 v -4.24 h 6.61 l 0.98,3.92 c 0.46,1.64 1.59,2.47 3.37,2.47 h 7.27 c 0.91,0 1.66,-0.35 2.24,-0.98 0.55,-0.68 0.78,-1.54 0.78,-2.54 v -4.67 c 0,-2.28 -0.98,-3.46 -3.01,-3.46 h -9.11 c -2.51,0 -4.67,-0.87 -6.43,-2.61 -1.76,-1.82 -2.68,-3.98 -2.68,-6.52 v -6.14 c 0,-2.47 0.92,-4.6 2.68,-6.39 1.76,-1.79 3.92,-2.65 6.43,-2.65 h 10.56 c 2.54,0 4.66,0.85 6.39,2.52 1.72,1.7 2.6,3.84 2.6,6.4 v 3.84 h -6.56 l -1.01,-3.48 c -0.52,-1.67 -1.63,-2.48 -3.32,-2.48 h -7.18 c -0.92,0 -1.7,0.35 -2.22,1.02 -0.58,0.65 -0.84,1.49 -0.84,2.52 v 3.61 c 0,2.24 1.02,3.36 3.06,3.36 h 9.09 c 2.51,0 4.63,0.89 6.39,2.71 1.83,1.8 2.73,3.91 2.73,6.39 v 7.24 z" />
        <path
           id="path8112"
           class="cls-4"
           d="m 4694.58,1599.03 h -7.27 l -2.22,1 c -0.52,0.68 -0.81,1.5 -0.81,2.52 v 21.92 c 0,1.01 0.29,1.82 0.81,2.49 l 2.22,1.07 h 7.27 l 2.19,-1.07 c 0.58,-0.68 0.87,-1.49 0.87,-2.49 v -21.92 c 0,-1.02 -0.29,-1.85 -0.87,-2.52 z m 10.6,26.69 c 0,2.6 -0.88,4.76 -2.65,6.53 -1.82,1.74 -3.92,2.65 -6.49,2.65 h -10.22 c -2.52,0 -4.72,-0.91 -6.46,-2.65 -1.76,-1.77 -2.68,-3.94 -2.68,-6.53 v -24.6 c 0,-2.42 0.92,-4.59 2.68,-6.35 1.75,-1.77 3.94,-2.64 6.46,-2.64 h 10.22 c 2.57,0 4.67,0.87 6.49,2.61 1.77,1.73 2.65,3.91 2.65,6.37 v 24.6 z" />
      </g>
    </g>
    <text
       class="cls-5"
       id="text1095"
       x="2344.99"
       y="1386.71"><tspan
         x="2344.99"
         y="1386.71"
         id="tspan1089">Supporting games released by:</tspan></text>
  </g>
</svg>
