<?xml version="1.0" encoding="UTF-8"?>
<svg id="FrostyLogo" data-name="FrostyLogo" xmlns="http://www.w3.org/2000/svg" viewBox="0 0 108.84 124.75">
  <defs>
    <style>
      .cls-1 {
        fill: #fff;
      }
    </style>
  </defs>
  <g id="FrostyLogo">
    <path id="Logo" class="cls-1" d="m53.54,0l-13.38,13.38,4.55,17.68-13.89-7.32.76,14.9-13.64-12.88L0,30.3l4.8,19.45,17.43,4.04-12.88,8.59,12.37,7.32-17.42,5.05L.25,92.43l19.45,5.81,11.87-12.63.76,15.4,12.12-6.56-3.79,18.43,13.64,11.87,12.88-14.39-3.54-16.92,13.89,6.57-.25-12.88,13.64,12.38,17.43-4.55-4.54-19.19-18.44-5.3,12.63-8.08-12.38-7.32,18.69-5.05,4.55-17.68-19.19-6.31-12.88,12.88-.76-15.66-12.63,6.57,4.04-17.43L53.54,0Zm-.01,21.17l7,11.4-7.08,24.89-6.4-24.9,6.48-11.39Zm-35.59,19.44l13.39.45,18.75,19.38-25.09-7.14-7.05-12.68Zm57.68,1.16l14.02.8-6.88,11.07-25,6.07,17.86-17.95Zm-25.71,22.32l-17.86,18.48h-14.46l6.96-11.96,25.36-6.52Zm8.12.45l24.82,6.96,7.5,12.05-13.66.27-18.66-19.29Zm-4.38,2.14l7.05,24.91-7.23,11.7-6.7-12.05,6.88-24.55Z"/>
  </g>
</svg>